<svg width="128" height="128" viewBox="0 0 128 128" fill="none" xmlns="http://www.w3.org/2000/svg">
<path d="M70.344 38.5125C70.3069 38.3267 70.3441 38.058 70.2212 37.9666C68.4779 36.5547 66.7918 35.0827 64.9456 33.7937C62.0192 31.733 58.7041 31.8273 55.0089 32.3361C54.8421 33.2118 54.7257 34.0964 54.6603 34.9856C54.6088 37.2721 54.6603 39.5586 54.6374 41.8451C54.6374 42.5081 54.7832 43.3284 54.4574 43.7943C53.9996 44.4531 53.3129 44.9177 52.5312 45.0976C52.1711 45.1519 51.328 44.1687 51.2623 43.5914C51.0594 41.7944 51.0078 39.9837 51.108 38.1781C51.1995 36.4975 50.6164 35.2971 49.3361 34.2482C46.364 31.8159 45.601 28.6748 46.6841 25.0593C47.1694 23.5351 47.2792 21.9162 47.0041 20.3405C45.6781 12.8579 51.8367 8.74507 56.8008 8.90798C57.1809 8.92227 57.6153 8.85654 57.9296 9.01373C60.3188 10.2027 62.8023 10.3599 65.3829 9.88546C66.3917 9.69968 67.1147 10.2056 67.1862 11.2116C67.2605 12.2663 66.6975 12.9551 65.5772 13.2123C63.9117 13.5573 62.2691 14.0049 60.6589 14.5528C55.349 16.5163 51.9053 20.3205 50.0649 25.6252C49.4762 27.3143 49.439 28.9463 50.6364 30.6755C51.1823 30.3182 51.6796 30.1039 52.0425 29.738C53.7477 28.0159 55.7774 26.6492 58.0143 25.7171C60.2512 24.7849 62.6509 24.3058 65.0742 24.3076C69.2607 24.2621 73.3981 23.4 77.2543 21.7696C78.4746 21.2494 79.7606 20.2176 80.3779 19.0772C82.0183 16.0447 80.0407 12.7893 76.5741 12.5207C75.2481 12.4149 73.9078 12.5207 72.5732 12.4949C71.3671 12.4778 70.4584 11.9233 70.4756 10.6686C70.4927 9.56821 71.4215 9.00802 72.4474 9.0023C74.4479 8.98515 76.5399 8.71649 78.3975 9.24524C84.7161 11.0516 86.4251 18.3141 81.7868 23.0386C81.3422 23.4449 80.8757 23.8266 80.3894 24.1818C80.7066 25.0393 80.8637 25.8967 81.3124 26.5769C83.2843 29.5637 82.1155 34.2767 79.069 36.5175C77.4972 37.6608 77.2972 38.9241 77.2314 40.5903C77.1486 42.7539 77.0457 44.9719 76.5055 47.0497C75.874 49.4648 74.3593 51.4541 72.2759 52.946C71.2014 53.7177 70.8471 54.7238 70.8956 56.1186C70.9757 59.394 72.2388 61.7548 75.3138 63.0552C75.7602 63.2212 76.1678 63.477 76.5113 63.8069C78.5546 66.0334 81.1123 66.3792 83.993 66.3078C90.1802 66.1592 96.3732 66.2563 102.569 66.2763C104.307 66.2763 106.104 66.3164 107.03 68.1456C107.482 69.0402 107.927 70.0691 107.936 71.038C108.005 79.9896 108.045 88.9384 107.936 97.8872C107.899 101.108 105.936 103.724 104.464 106.444C104.261 106.825 103.238 107.079 102.766 106.91C102.495 106.767 102.263 106.559 102.092 106.304C101.92 106.05 101.813 105.758 101.78 105.453C101.794 104.647 102.14 103.804 102.509 103.055C103.971 100.175 104.688 96.9744 104.595 93.7458C104.389 86.7063 104.538 79.6552 104.524 72.61C104.524 71.7754 104.401 70.9437 104.321 69.9176H24.0901C24.0272 70.9351 23.9214 71.8526 23.9186 72.7757C23.9186 80.6785 23.89 88.5812 23.9357 96.4839C23.9357 97.5957 24.0472 98.8019 24.4815 99.8022C26.482 104.401 28.6712 108.917 30.6545 113.521C31.2003 114.793 31.9605 115.29 33.2265 115.288C33.8953 115.288 34.5611 115.302 35.227 115.302H93.241C93.7183 115.302 94.1955 115.27 94.6699 115.302C96.2932 115.408 97.3735 114.816 97.9107 113.17C98.2419 112.19 98.7462 111.278 99.3997 110.477C99.7312 110.069 100.723 109.686 101.034 109.886C101.56 110.223 102.106 111.058 102.063 111.641C101.98 112.724 101.492 113.778 101.017 115.305C102.955 115.305 104.629 115.282 106.301 115.305C107.159 115.319 108.082 115.239 108.828 115.556C109.399 115.796 110.108 116.602 110.088 117.131C110.068 117.66 109.331 118.374 108.742 118.677C108.202 118.963 107.439 118.812 106.773 118.812C78.3851 118.812 49.9973 118.812 21.6095 118.812C20.1806 118.812 18.6945 118.966 18 117.068C18.3829 115.776 19.4032 115.305 20.7549 115.299C22.1838 115.299 23.6128 115.319 25.0417 115.27C25.7647 115.248 26.4849 115.096 27.448 114.97C25.4732 110.577 23.6642 106.427 21.7323 102.332C20.8829 100.637 20.435 98.7686 20.4234 96.8726C20.4749 88.584 20.4406 80.2955 20.452 72.0069C20.4165 71.1517 20.472 70.2952 20.6177 69.4517C20.7884 68.6067 21.2366 67.8431 21.8911 67.2822C22.5457 66.7213 23.369 66.3954 24.2301 66.3564C26.4135 66.2135 28.6083 66.2306 30.8031 66.222C35.85 66.2077 40.8998 66.1363 45.9496 66.2592C47.7511 66.3507 49.5199 65.7528 50.8965 64.5872C52.2083 63.524 53.7315 62.7237 55.1033 61.7291C56.8865 60.4343 58.0868 56.1614 57.1838 54.2065C56.9237 53.6348 56.3064 53.2433 55.8434 52.7774C55.2404 52.1772 54.5546 51.6341 54.0316 50.9796C53.3743 50.1451 53.3028 49.1533 54.1516 48.4245C54.8975 47.7871 55.772 47.95 56.4378 48.6703C57.7582 50.0736 59.39 50.9339 61.0818 51.8371C64.5284 53.6749 70.6127 51.054 72.4388 47.6814C73.9792 44.8404 73.9793 41.9108 73.5506 38.5039L70.2383 38.4039L70.344 38.5125ZM55.9635 66.0163C61.1476 66.565 70.3612 66.3735 72.4417 65.5961C68.8008 63.2524 67.4405 59.7998 67.3719 55.8985H61.0675C59.7701 61.7691 61.0847 60.4658 55.9635 66.0163ZM61.3934 28.4261C65.16 29.778 68.1292 31.4872 70.7384 33.8766C72.1531 35.1713 74.0535 35.2542 75.8568 34.4482C79.3434 32.9105 79.6692 29.3265 76.7542 26.214L61.3934 28.4261ZM55.5748 13.0037C52.9484 12.9122 51.4195 14.227 50.9737 16.8622L55.5748 13.0037Z" fill="#A4A0C6"/>
<path d="M91.5289 108.825V75.8509C91.5289 75.2793 91.5489 74.7077 91.5289 74.136C91.5089 73.0185 92.0432 72.2268 93.1292 72.1525C94.461 72.061 94.8925 73.0271 94.9497 74.2018C94.9497 74.4876 94.9668 74.7734 94.9668 75.0592C94.9668 85.7086 94.9868 96.3551 94.9525 107.005C94.9525 109.754 94.2181 110.14 91.5289 108.825Z" fill="#A4A0C6"/>
<path d="M51.3794 91.0504C51.3794 96.0883 51.3794 101.127 51.3794 106.167C51.3794 106.83 51.3593 107.496 51.3393 108.168C51.305 109.288 50.4248 109.697 49.6246 109.614C49.0531 109.554 48.3272 108.897 48.0786 108.328C47.7928 107.682 47.9385 106.836 47.9385 106.078C47.9385 96.0007 47.9385 85.9239 47.9385 75.848C47.9385 75.0877 47.8013 74.2503 48.0757 73.5929C48.3215 73.0042 49.136 72.1639 49.5361 72.2325C50.2048 72.3668 50.9164 73.0527 51.2822 73.6958C51.568 74.2046 51.3851 74.9934 51.3851 75.6565C51.3851 80.7859 51.3832 85.9172 51.3794 91.0504Z" fill="#A4A0C6"/>
<path d="M62.3996 108.817V88.6984C62.3996 84.3255 62.3996 79.9526 62.3996 75.5796C62.3996 74.9137 62.2138 74.1134 62.5139 73.6189C62.8997 72.9902 63.6571 72.3385 64.3258 72.227C64.7259 72.1613 65.4232 73.0616 65.7547 73.6561C65.9948 74.1105 65.8604 74.7708 65.8604 75.3395C65.8604 85.7012 65.8604 96.0629 65.8604 106.425C65.8604 106.71 65.8604 106.996 65.8604 107.282C65.729 109.751 65.026 110.1 62.3996 108.817Z" fill="#A4A0C6"/>
<path d="M77.0539 90.6851V75.8572C77.0539 75.1912 77.0339 74.5253 77.0911 73.8565C77.1711 72.9133 77.6055 72.1416 78.6343 72.1416C79.7288 72.1416 80.369 72.8247 80.4805 73.9165C80.5187 74.4873 80.5282 75.0596 80.509 75.6314C80.509 85.8959 80.509 96.1604 80.509 106.425C80.509 107.091 80.6719 107.874 80.3804 108.386C80.0632 108.957 79.303 109.58 78.7372 109.58C78.1713 109.58 77.4398 108.897 77.194 108.331C76.9082 107.685 77.0596 106.839 77.0596 106.079C77.052 100.95 77.0501 95.8183 77.0539 90.6851Z" fill="#A4A0C6"/>
<path d="M36.7306 91.2739C36.7306 96.2146 36.7306 101.155 36.7306 106.096C36.7306 106.856 36.8792 107.702 36.5934 108.348C36.3448 108.92 35.576 109.589 35.0416 109.583C34.5072 109.577 33.7727 108.923 33.4011 108.368C33.1296 107.962 33.2754 107.262 33.2754 106.693C33.2754 96.2423 33.2754 85.7891 33.2754 75.3341C33.2754 75.0483 33.2611 74.7625 33.2754 74.4767C33.384 73.0019 34.1328 72.0158 35.1702 72.1358C36.5334 72.293 36.7163 73.3363 36.7163 74.4509C36.7163 79.6756 36.7163 84.9022 36.7163 90.1306L36.7306 91.2739Z" fill="#A4A0C6"/>
<path d="M79.6693 57.5332C79.6236 56.9788 79.4492 56.4757 79.5721 56.0584C79.9522 54.7466 80.5381 53.5147 79.5893 52.1485C79.3349 51.7798 79.4235 50.9481 79.6693 50.5022C80.2123 49.519 80.3695 48.7559 79.7236 47.6727C79.152 46.7267 79.4378 45.592 80.6381 45.0775C81.8384 44.563 82.3528 45.4977 82.9243 46.2522C83.1032 46.4753 83.246 46.7251 83.3473 46.9925C83.6045 47.7727 84.2647 48.8274 83.9818 49.3161C82.6129 51.6655 85.3106 54.3664 83.0558 56.7129C81.9927 57.8076 81.2497 58.1849 79.6693 57.5332Z" fill="#A4A0C6"/>
<path d="M44.0752 54.1777C45.2383 52.3456 44.481 50.6479 44.4381 48.9359C44.4096 47.8641 45.2555 46.6951 45.9213 45.7148C46.2071 45.2918 47.2302 44.8945 47.5646 45.0888C48.1047 45.4032 48.8163 46.475 48.6449 46.7837C47.3703 49.0959 49.6623 51.5968 48.159 53.9033C47.8904 54.312 48.6334 55.2838 48.6506 56.004C48.6677 56.5756 48.3791 57.6246 48.079 57.6789C47.3388 57.8161 46.2129 57.7818 45.7928 57.3159C45.0154 56.4613 44.6296 55.2495 44.0752 54.1777Z" fill="#A4A0C6"/>
<path d="M70.0152 46.2841C67.6061 50.0768 62.0762 50.7428 59.1012 47.616C58.4325 46.9129 58.1495 46.2041 58.7754 45.3581C59.4012 44.5121 60.2357 44.3863 61.0245 44.9408C63.1193 46.4242 65.1026 46.5099 67.266 45.0008C68.4177 44.1977 68.7092 44.4435 70.0152 46.2841Z" fill="#A4A0C6"/>
<path d="M38.5081 47.3496C39.5741 47.7154 40.7058 47.7526 41.0801 48.3099C41.8975 49.4875 43.3378 50.6365 42.6291 52.3542C42.1848 53.4045 41.5644 54.3712 40.7943 55.2123C39.9227 56.1641 38.0651 55.521 38.2937 54.3349C38.7281 52.1598 38.0308 49.9476 38.5081 47.3496Z" fill="#A4A0C6"/>
<path d="M89.0027 55.841C88.3539 55.5837 87.9682 55.5094 87.6767 55.3036C85.3304 53.6516 85.1989 49.7417 87.4937 47.9497C87.9253 47.6124 88.7741 47.5467 89.3171 47.7153C89.7 47.8382 90.2259 48.6785 90.1173 49.0072C89.5457 50.7421 89.7314 52.3941 90.103 54.129C90.2058 54.5948 89.3999 55.2551 89.0027 55.841Z" fill="#A4A0C6"/>
<path d="M70.2497 38.441C70.7555 39.1441 72.0015 39.4728 71.4442 40.7133C70.9127 41.8965 69.8924 41.8222 68.7979 41.8394C67.7033 41.8565 66.6402 41.7822 66.1972 40.6361C66.1494 40.38 66.1646 40.1162 66.2412 39.8673C66.3179 39.6184 66.4538 39.3918 66.6373 39.207C67.7119 38.3496 68.955 37.9037 70.3525 38.5296L70.2497 38.441Z" fill="#A4A0C6"/>
<path d="M59.3471 41.8022C58.204 41.968 57.1123 41.8022 56.8208 40.356C56.6351 39.4328 58.0868 38.3181 59.4157 38.2638C60.7446 38.2095 62.1621 39.2127 62.1793 40.1816C62.2021 41.322 61.379 41.8108 59.3471 41.8022Z" fill="#A4A0C6"/>
</svg>
