<svg width="107" height="111" viewBox="0 0 107 111" fill="none" xmlns="http://www.w3.org/2000/svg">
<path d="M28.2635 22.4471C35.2594 20.978 41.7496 19.1859 48.5684 19.2174C55.3872 19.2488 61.9116 20.8637 68.6733 22.5099C68.7704 21.5125 68.859 20.7951 68.9019 20.0691C68.9419 19.4031 68.9019 18.7343 68.9447 18.0684C69.0048 16.9109 69.7764 16.3164 70.7966 16.325C71.754 16.325 72.3084 17.0681 72.3227 18.0399C72.357 20.2292 72.3684 22.4204 72.357 24.6136C72.3317 25.7225 72.6296 26.8149 73.2143 27.7575C74.8233 30.527 74.5204 33.6681 73.6087 36.5977C73.2972 37.598 72.0798 38.5812 71.0367 39.0214C69.8107 39.5387 69.162 40.2303 68.9648 41.4422C68.1589 46.3525 65.6925 50.2281 61.7287 53.1948C60.6885 53.9751 60.094 54.9525 60.2255 56.3559C60.377 57.9421 60.3655 59.5456 60.4227 61.1147C65.8868 62.6181 71.0967 63.9928 76.2665 65.4962C79.253 66.3536 82.1794 67.4426 85.1258 68.4343C85.7488 68.643 86.3489 69.006 86.9891 69.0831C89.3582 69.3861 91.1387 70.135 91.4016 72.9674C91.5274 74.3421 92.9905 74.8766 94.228 74.0535C95.7455 73.0474 97.4887 72.7215 98.7805 73.6361C100.495 74.8508 102.467 76.2085 102.827 78.5464C102.967 79.4525 102.433 80.5471 101.993 81.4445C101.092 83.2995 101.273 83.8626 103.25 84.4856C106.068 85.3716 106.568 86.0204 106.637 88.91C106.654 89.6703 106.668 90.4334 106.637 91.1965C106.522 93.483 105.851 94.3176 103.579 95.0264C101.173 95.7752 100.99 96.2068 102.167 98.3675C103.31 100.474 103.242 101.466 101.71 103.272C101.15 103.919 100.55 104.531 99.9151 105.104C98.1061 106.759 97.0287 106.91 94.7995 105.873C92.459 104.784 91.9417 105.016 91.2416 107.468C90.7186 109.326 89.7469 110.229 87.8664 110.326C86.4375 110.406 84.8801 110.64 83.6283 110.157C82.3766 109.674 81.342 108.377 80.4275 107.036H8.75591C7.70709 107.036 6.6554 107.071 5.61229 106.971C2.29721 106.653 0.10531 104.398 0.385377 101.094C0.671161 97.7044 1.43987 94.3547 1.97714 91.0907C4.66064 90.0875 5.49803 90.5963 5.15794 92.96C4.87216 95.0207 4.46635 97.0757 4.01481 99.1107C3.30321 102.366 4.13768 103.501 7.56708 103.512C18.2325 103.544 28.8951 103.512 39.5605 103.526H70.1679C69.2191 101.277 69.2791 99.5051 70.4794 97.6787C71.2825 96.4526 70.5823 95.5323 68.9762 95.0636C66.327 94.289 65.5468 93.3229 65.4867 90.6763C65.4696 90.0104 65.4639 89.3444 65.4867 88.6756C65.5839 86.2033 66.4698 85.1287 68.9161 84.4885C69.3648 84.3742 69.8221 84.2969 70.1765 84.2255C70.8967 83.0822 70.7137 82.2248 70.1565 81.1845C68.9247 78.898 69.1591 77.7833 70.9481 75.854C71.2682 75.5053 71.674 75.2396 72.0141 74.9109C74.0946 72.9102 75.4063 72.5958 77.7783 74.0134C78.9214 74.6965 79.6959 74.4193 80.7876 73.6819C80.8419 72.693 80.8991 71.584 80.9562 70.495C78.6185 69.7519 76.4751 69.0374 74.3146 68.3915C72.9629 67.9885 71.8283 68.1343 70.7938 69.389C68.5075 72.1585 66.0069 74.7394 63.7035 77.4889C61.2914 80.3699 58.3908 80.8958 55.01 79.6382C54.2098 79.3524 53.4353 78.9837 52.6437 78.6664C49.5658 77.4317 46.5594 77.6404 43.5901 79.058C42.8243 79.4398 42.0232 79.7461 41.198 79.9726C38.0544 80.7729 35.4138 80.0012 33.2704 77.4832C30.9384 74.7451 28.4121 72.1613 26.1859 69.3518C25.3 68.24 24.3797 67.9799 23.2395 68.3115C20.4302 69.126 17.6238 69.9806 14.8689 70.9609C10.0591 72.6758 7.95576 76.4914 7.1527 81.2502C6.92979 82.5592 6.62973 83.854 6.37538 85.1144C3.74904 85.9433 3.02028 85.4316 3.36322 83.0222C3.86334 79.5439 4.58351 76.1856 6.644 73.1617C9.09888 69.5633 12.6455 67.8113 16.5778 66.6252C19.4757 65.7677 22.4164 65.0303 25.3342 64.2272C28.8893 63.2526 32.4417 62.2608 36.1483 61.2347C37.1342 59.5742 37.0056 57.5477 36.8056 55.5813C36.6802 54.7446 36.2433 53.9861 35.5824 53.4578C30.9442 50.048 28.7236 45.2606 27.5119 39.8416C27.477 39.7536 27.4256 39.6731 27.3604 39.6044C22.8708 37.9467 21.0732 33.6024 23.3281 28.9579C24.3455 26.8858 24.5169 24.9136 24.5312 22.7243C24.5512 19.2231 24.3397 15.7448 25.0428 12.2178C26.0344 7.23896 29.9554 4.3208 34.4736 3.20613C37.783 2.39157 41.1038 1.57415 44.4617 0.999666C46.4936 0.648116 48.6599 0.408034 50.6689 0.713853C54.8728 1.3798 59.0452 2.32873 63.1748 3.38909C66.1555 4.15507 68.8361 5.58984 70.5108 8.38223C71.0824 9.33971 72.0512 10.3829 70.6994 11.3404C69.5563 12.1578 68.5046 11.6634 67.8416 10.5258C66.7556 8.70234 64.9638 7.80772 63.1376 7.06175C61.9345 6.57301 60.5656 6.46729 59.2881 6.16718C57.3505 5.71274 55.3957 5.3097 53.4896 4.75808C48.7027 3.36903 44.093 4.23222 39.4862 5.65557C38.2041 6.01089 36.9038 6.29712 35.591 6.51301C31.993 7.21897 28.8837 9.55121 28.4007 13.1696C28.0149 16.1306 28.0577 19.003 28.2635 22.4471ZM26.1344 30.184C26.1344 31.7217 26.1544 32.4705 26.1344 33.2251C26.0858 34.7685 26.706 35.9003 28.2949 36.0832C30.6412 36.3461 31.0527 37.8152 31.2785 39.8245C31.5867 42.8508 32.8282 45.7063 34.8308 47.9959C39.7892 53.6407 48.1254 56.6874 56.496 52.5003C61.2714 50.1137 64.7838 46.4268 65.4811 40.8763C65.8412 37.9667 66.8071 36.0174 69.945 35.7116C70.1022 35.6973 70.2308 35.5058 70.5309 35.2886V30.6299C68.6161 32.1218 66.6728 32.6763 64.6895 32.0361C61.5973 31.0415 58.4422 30.5127 55.2386 30.144C48.6656 29.3866 42.1726 29.6096 35.7396 31.253C32.656 32.0361 29.5124 33.3766 26.1344 30.184ZM69.0905 91.1222C70.748 92.2254 73.0429 92.2654 73.8002 94.552C74.5032 96.6727 74.4775 98.6333 73.2286 100.431C74.689 103.003 74.6576 102.903 77.0381 101.952C78.0933 101.59 79.2301 101.54 80.3132 101.806C82.8338 102.397 84.2256 104.23 84.6886 106.836L87.5121 106.708C87.9493 105.707 88.2265 104.893 88.6552 104.158C89.8126 102.123 93.042 100.983 95.0939 101.832C97.6517 102.889 97.6517 102.889 99.2578 100.28C97.5745 98.7591 97.7231 96.8499 98.4004 94.8492C99.1549 92.5827 101.278 92.0682 103.116 91.2394V88.3812C98.0118 86.5606 96.8286 83.6625 99.2463 78.8294C98.6091 78.1377 97.926 77.4003 97.2858 76.7115C92.4704 79.6553 88.9238 77.3717 87.4435 72.8787H84.4628C84.3771 75.2967 83.0338 76.7058 81.0019 77.6661C78.8243 78.6922 77.0009 77.7261 75.0662 76.6886L73.08 78.9294C74.4089 80.87 74.6804 82.8336 73.8745 84.9515C73.0314 87.1694 70.991 87.7553 69.1162 88.4412L69.0905 91.1222ZM40.938 56.3902C40.4464 58.6138 40.135 60.7574 39.4634 62.7838C39.0947 63.9013 39.2433 64.4501 40.0864 65.1847C42.0726 66.8996 43.9473 68.7716 45.8763 70.5665C46.748 71.3782 47.6453 72.1642 48.6541 73.0759C51.3376 70.5694 53.7982 68.2486 56.2817 65.9564C57.5277 64.8131 58.5222 63.7528 57.2105 61.9093C56.7304 61.2376 56.9247 60.0772 56.8418 59.1368C56.7646 58.2422 56.7361 57.3419 56.6732 56.2015C51.2719 58.4394 46.1164 58.5252 40.9237 56.3902H40.938ZM68.4418 26.5228C67.7359 26.1484 67.0758 25.6082 66.3299 25.4395C63.1034 24.7078 59.8712 23.959 56.6132 23.4388C47.6339 22.0098 38.8203 23.033 30.1583 25.5738C29.6153 25.731 28.898 26.6257 28.9437 27.1116C28.998 27.6832 29.6953 28.4549 30.2868 28.6778C30.8784 28.9007 31.7701 28.6778 32.5045 28.5378C35.9482 27.8718 39.3634 26.9658 42.827 26.5199C50.0888 25.5882 57.242 26.4342 64.2608 28.4406C66.7414 29.158 67.0071 29.0779 68.4275 26.5228H68.4418ZM29.0037 66.7509C29.2895 67.3083 29.4209 67.7741 29.7096 68.1057C31.3128 69.9635 32.9446 71.7955 34.585 73.6219C37.9744 77.3975 38.3002 77.6232 43.0814 75.6025C43.6529 75.3625 44.2245 75.1138 45.0075 74.7765C42.847 72.6243 40.7837 70.7065 38.8832 68.6401C36.5284 66.0678 34.0249 64.4787 30.5155 66.4422C30.1125 66.6652 29.6067 66.6309 28.9751 66.7509H29.0037ZM51.9978 74.7537C53.7125 75.4368 54.9385 75.9169 56.1645 76.4257C57.8021 77.1087 59.3081 77.0516 60.5684 75.6568C62.6546 73.3532 64.7466 71.0524 66.81 68.7287C67.3003 68.1135 67.7573 67.4724 68.1789 66.8081C67.553 66.6509 67.1729 66.6252 66.8614 66.468C63.1833 64.5959 60.5313 66.0335 58.0678 68.8802C56.2674 70.9524 54.1469 72.6873 51.9693 74.768L51.9978 74.7537Z" fill="#A4A0C6"/>
<path d="M32.7443 86.0434C34.5448 86.0434 36.3509 85.9576 38.1456 86.0662C40.1118 86.1863 41.032 87.1266 41.3435 89.0444C41.3753 89.3292 41.3925 89.6154 41.395 89.9019C41.6408 94.6035 40.6977 95.601 35.9651 95.6181C33.2187 95.6181 30.4666 95.6581 27.7202 95.6181C24.9739 95.5781 23.9651 94.5406 23.7565 91.8768C23.7088 91.2108 23.7088 90.5422 23.7565 89.8761C23.9279 87.1466 24.9138 86.1606 27.6202 86.052C29.3349 85.992 31.0325 86.052 32.7386 86.052L32.7443 86.0434ZM37.9198 89.7103C34.3706 89.4459 30.8066 89.4459 27.2573 89.7103C27.3631 90.6935 27.4373 91.3681 27.5145 92.0655H37.7626C37.8112 91.3338 37.8541 90.7135 37.9198 89.7103Z" fill="#A4A0C6"/>
<path d="M86.1036 97.4872C81.5854 97.4872 78.5332 94.3433 78.356 89.8817C78.1731 85.2801 82.6713 81.9133 86.215 81.9019C89.8845 81.9019 94.1484 85.8146 93.9969 89.7188C93.8226 94.2632 90.719 97.4958 86.1036 97.4872ZM86.0664 94.0774C88.8414 94.1003 90.5418 92.4369 90.5104 89.7388C90.4885 88.6017 90.0321 87.516 89.2349 86.7049C88.4376 85.8938 87.3601 85.4187 86.2236 85.3773C83.6801 85.3344 81.8282 87.2294 81.8454 89.8531C81.8625 92.4769 83.4429 94.0574 86.0664 94.0774Z" fill="#A4A0C6"/>
</svg>
