<svg width="128" height="128" viewBox="0 0 128 128" fill="none" xmlns="http://www.w3.org/2000/svg">
<path d="M63.7378 64.9305C49.4486 64.9305 35.1852 64.9563 20.9103 64.8991C19.112 64.9169 17.3208 64.6694 15.5947 64.1646C11.5509 62.8955 9.23035 59.9374 9.13318 55.7474C8.95028 47.9504 8.92742 40.1448 9.13318 32.3479C9.26178 27.6062 12.5026 24.3137 17.2437 23.4677C18.6454 23.2168 20.0665 23.0896 21.4904 23.0875C49.7582 23.0685 78.0251 23.0685 106.291 23.0875C107.716 23.0901 109.138 23.2163 110.541 23.4648C115.416 24.3222 118.72 28.0092 118.794 32.9281C118.908 40.3478 118.908 47.7684 118.794 55.19C118.711 60.2832 115.056 64.1446 109.983 64.7848C108.749 64.9105 107.508 64.9573 106.268 64.9248C92.0951 64.9324 77.9184 64.9343 63.7378 64.9305ZM12.4768 50.4941H72.0341C72.987 50.4542 73.9414 50.4733 74.8919 50.5513C75.5448 50.6236 76.1709 50.851 76.7181 51.2144C77.824 51.9975 77.7097 53.155 76.4151 53.558C75.2324 53.8941 74.0064 54.0531 72.7771 54.0296C54.0164 54.0544 35.25 54.062 16.4778 54.0525C15.5238 54.0144 14.5682 54.0517 13.62 54.164C13.217 54.2297 12.8827 54.7213 12.5169 55.0214C12.5569 55.2129 12.5997 55.4073 12.6426 55.593C13.6286 55.6673 14.6145 55.8017 15.6005 55.8045C24.6484 55.8217 33.6963 55.8045 42.7499 55.8245C43.693 55.8245 44.6846 55.8245 45.562 56.1104C45.8506 56.2338 46.1052 56.425 46.3042 56.6678C46.5032 56.9106 46.6408 57.1978 46.7051 57.5051C46.7365 57.9596 46.1335 58.7227 45.6706 58.8885C44.6836 59.206 43.6523 59.3642 42.6156 59.3572C34.425 59.3915 26.2345 59.3572 18.0382 59.3886C17.078 59.3886 16.1177 59.5487 14.6431 59.6744C17.0637 61.5579 19.2871 61.3893 21.459 61.3893C49.7458 61.3893 78.0327 61.3893 106.319 61.3893C107.651 61.3778 108.98 61.2891 110.3 61.1235C111.175 61.0206 111.995 60.6948 113.041 59.3686H108.786C90.7834 59.3686 72.779 59.3686 54.7728 59.3686C53.6384 59.3876 52.5064 59.2569 51.4062 58.9799C50.9233 58.8456 50.2345 58.0253 50.306 57.6366C50.4146 57.0307 50.9976 56.2075 51.552 56.0532C52.5208 55.7674 53.6182 55.8245 54.6613 55.8245C68.76 55.8131 82.8586 55.8131 96.9572 55.8245C102.101 55.8245 107.245 55.8474 112.39 55.8017C113.35 55.8017 114.519 56.2504 115.276 54.9642C114.564 53.701 113.318 54.0725 112.272 54.0668C103.319 54.0382 94.3652 54.0668 85.4087 54.0411C84.3656 54.0411 83.2768 54.0782 82.2966 53.7953C81.7078 53.6266 80.9705 52.9378 80.8676 52.3662C80.6819 51.4402 81.3992 50.7714 82.3594 50.6513C83.3077 50.5377 84.2623 50.4862 85.2173 50.497C94.0765 50.497 102.936 50.497 111.795 50.497C112.913 50.497 114.027 50.3941 115.33 50.3312C115.33 44.0976 115.525 38.1156 115.239 32.1535C115.116 29.5812 113.418 27.5805 110.603 27.0718C109.299 26.8185 107.974 26.6798 106.645 26.6573C78.166 26.6345 49.6887 26.6345 21.2132 26.6573C19.8827 26.6554 18.5557 26.7963 17.2551 27.0775C14.3602 27.7177 12.7083 29.7012 12.5512 32.6823C12.4511 34.5829 12.5026 36.4893 12.4997 38.3985C12.4769 42.2742 12.4768 46.1555 12.4768 50.4941Z" fill="#A4A0C6"/>
<path d="M43.4758 83.8203C43.4758 86.0611 43.4958 87.6731 43.4758 89.2851C43.4558 90.3111 43.19 91.18 41.9011 91.2257C40.6122 91.2715 40.2407 90.3254 40.1693 89.3765C40.0493 87.7788 40.1378 86.1668 40.1378 83.9261C38.2745 84.8893 36.9171 85.6009 35.5653 86.2926C33.7249 87.2272 33.722 87.2215 32.2588 85.2522C33.3676 82.8028 36.2598 82.5427 38.0688 80.4306C36.8742 79.5731 35.6168 78.5671 34.2564 77.7268C33.1647 77.0551 31.9702 76.5007 32.6103 74.9458C33.0761 73.8369 34.4736 73.8455 36.1026 74.8201C37.0742 75.3917 38.0459 75.9805 39.0319 76.535C39.1719 76.6121 39.3948 76.535 39.9664 76.535C40.0064 75.466 40.0464 74.3828 40.0835 73.2996C40.0747 72.7271 40.0976 72.1546 40.1521 71.5847C40.3036 70.5729 40.7466 69.6869 41.9183 69.7269C43.09 69.7669 43.5015 70.6101 43.5015 71.6933C43.5015 73.2938 43.5015 74.8915 43.5015 76.535C46.4108 76.8208 47.8368 73.1681 50.7976 74.3571C51.3949 75.7861 51.1805 76.8179 49.6544 77.6296C48.1826 78.4156 46.8623 79.4845 45.3219 80.5363C46.8595 81.4938 48.1512 82.2512 49.3972 83.1087C49.9431 83.4716 50.6289 83.8889 50.8261 84.4348C50.933 84.7692 50.9716 85.1216 50.9397 85.4712C50.9078 85.8207 50.806 86.1603 50.6404 86.4698C50.4375 86.7985 49.4258 86.9014 48.9257 86.7127C47.8768 86.3098 46.9252 85.6438 45.9364 85.0979C45.2905 84.7406 44.6446 84.4291 43.4758 83.8203Z" fill="#A4A0C6"/>
<path d="M104.064 81.7706C105.322 81.199 106.085 80.8817 106.819 80.5073C107.151 80.3358 107.405 80.0186 107.728 79.8242C109.351 78.8382 111.015 78.7953 111.655 79.7013C112.226 80.4959 111.515 81.5477 109.72 82.7081C108.554 83.4598 107.414 84.2486 105.939 85.2375C107.225 86.1835 108.225 86.9524 109.263 87.6783C109.72 88.0013 110.366 88.1471 110.692 88.5586C111.172 89.1817 111.901 90.1363 111.709 90.6451C111.278 91.7883 110.092 91.7598 109.04 91.3253C108.348 91.0395 107.697 90.6537 107.039 90.2964C106.234 89.862 105.436 89.4075 104.316 88.7844C104.216 89.8648 104.119 90.5736 104.09 91.2825C104.047 92.2285 104.133 93.1888 104.024 94.1263C103.916 95.0638 103.533 96.127 102.39 96.1441C101.101 96.1641 100.655 95.1924 100.652 94.012C100.652 92.4086 100.652 90.8051 100.652 88.6901C99.4176 89.3389 98.546 89.8048 97.6629 90.2564C96.9113 90.6394 96.1768 91.2081 95.3766 91.311C94.6593 91.4053 93.8734 90.9852 93.1161 90.7909C93.3676 90.0306 93.4018 88.9874 93.9163 88.5615C95.2823 87.4554 96.8684 86.6208 98.8032 85.4004C97.3742 84.3915 96.2311 83.5283 95.0337 82.7538C93.2961 81.6305 92.6674 80.7017 93.1247 79.747C93.6019 78.7467 95.1537 78.8124 96.9313 79.8871C97.9687 80.513 99.0261 81.1075 100.404 81.9106C100.504 80.8903 100.604 80.1958 100.629 79.4955C100.672 78.3523 100.472 77.1662 100.749 76.0944C100.883 75.7282 101.098 75.3967 101.377 75.1242C101.656 74.8517 101.992 74.6451 102.361 74.5195C102.73 74.4195 103.55 75.3027 103.867 75.9029C104.153 76.4402 104.053 77.1947 104.067 77.855C104.084 78.9868 104.064 80.1186 104.064 81.7706Z" fill="#A4A0C6"/>
<path d="M66.6903 101.146C66.0616 102.117 66.736 104.29 64.6898 104.261C62.5979 104.241 63.1123 102.297 62.7722 100.831C62.1121 101.066 61.5348 101.443 60.9604 101.434C60.1916 101.434 59.1285 101.371 58.7227 100.888C57.9911 100.031 58.6941 99.1021 59.4057 98.4247C59.7887 98.0588 60.2859 97.813 60.9889 97.3386C60.2659 96.7155 59.58 96.3583 59.2742 95.7952C58.8999 95.1235 58.6169 94.2318 58.7513 93.523C58.8113 93.2143 60.0173 92.9799 60.7003 92.9799C61.3319 92.9799 61.9635 93.3372 62.7408 93.583C62.8437 92.8342 62.7637 92.0082 63.098 91.4137C63.4324 90.8192 64.124 90.2533 64.7356 90.1618C65.1671 90.0961 65.8958 90.7477 66.1645 91.2536C66.5074 91.8681 66.5188 92.6684 66.6503 93.2772L70.4398 92.9256C71.6915 95.3522 69.7482 95.981 68.6365 96.9013C69.1023 98.5704 72.0373 98.9248 70.3512 101.537L66.6903 101.146Z" fill="#A4A0C6"/>
<path d="M82.8228 75.1345C83.0029 77.8554 80.1907 80.0762 77.6473 80.0533C75.1038 80.0305 72.8404 77.5439 72.8204 75.023C72.8033 72.3764 75.2896 69.8155 77.9016 69.9899C80.9595 70.1899 83.08 72.6079 82.8228 75.1345ZM77.7244 72.988C77.1529 74.0027 76.5584 74.58 76.5813 75.1431C76.5956 75.5604 77.4987 76.3635 77.7987 76.2863C78.3703 76.1206 79.1362 75.4832 79.1934 74.9716C79.2505 74.46 78.4646 73.9312 77.7244 72.988Z" fill="#A4A0C6"/>
<path d="M14.8407 82.3877C14.6035 79.8153 17.127 77.4831 19.6104 77.4431C22.6226 77.3945 24.7917 79.8068 24.7317 82.3477C24.6659 85.0572 22.5883 87.2922 19.9276 87.3865C17.1841 87.4866 14.855 85.2001 14.8407 82.3877ZM21.0879 82.7964C21.1679 81.2673 20.5449 80.7957 19.6933 81.0015C19.412 81.0916 19.154 81.2429 18.9381 81.4445C18.7222 81.6461 18.5536 81.8931 18.4444 82.1676C18.1815 83.0736 18.8817 83.7024 19.6962 83.6395C20.2792 83.5967 20.8136 82.9736 21.0879 82.7964Z" fill="#A4A0C6"/>
<path d="M70.5136 33.9403C70.0535 35.2607 69.1647 35.7295 67.8758 35.7094C65.3038 35.6694 62.7317 35.7094 60.1597 35.6866C59.6939 35.6866 59.1052 35.6866 58.7937 35.4408C58.3364 35.0578 57.8763 34.4662 57.802 33.9117C57.7477 33.5144 58.2392 32.9056 58.6593 32.6227C59.1359 32.3185 59.6887 32.155 60.254 32.1511C62.8261 32.1082 65.3981 32.1196 67.9702 32.1511C68.5323 32.1259 69.0869 32.2879 69.5471 32.6117C70.0074 32.9354 70.3473 33.4027 70.5136 33.9403Z" fill="#A4A0C6"/>
<path d="M110.787 43.2403C112.173 43.2403 112.813 43.9062 112.813 45.3153C112.813 46.4014 111.724 47.536 110.715 47.4989C109.706 47.4617 108.575 46.2527 108.606 45.2438C108.658 44.0091 109.501 43.2345 110.787 43.2403Z" fill="#A4A0C6"/>
<path d="M103.713 43.5093C104.33 44.8326 104.73 46.013 103.344 47.0505C102.407 47.7536 101.629 47.4906 100.838 46.8218C99.9977 46.113 99.8805 45.2813 100.349 44.3238C101.164 42.6661 102.47 43.2978 103.713 43.5093Z" fill="#A4A0C6"/>
</svg>
