<svg width="111" height="111" viewBox="0 0 111 111" fill="none" xmlns="http://www.w3.org/2000/svg">
<path d="M102.648 35.5217C102.579 36.665 102.465 37.6968 102.462 38.7143C102.442 43.9503 102.462 49.1864 102.462 54.434C102.462 55.1971 102.479 55.9602 102.419 56.7205C102.345 57.6979 102.159 58.7641 100.99 58.907C99.664 59.0699 99.2153 57.9552 98.9667 56.932C98.7895 56.2117 98.8781 55.42 98.8781 54.6455C98.8781 48.7387 98.8781 42.8319 98.8781 36.9251V33.7326L55.0589 13.2169L11.2512 33.7068V107.161H13.7432V103.731C13.7432 85.8334 13.7432 67.9348 13.7432 50.0353C13.7432 48.9893 13.769 47.9403 13.7661 46.8914C13.7461 42.8014 16.2096 40.2348 20.6078 39.6032C21.3673 39.5267 22.1313 39.5047 22.894 39.5374C44.3221 39.5374 65.751 39.5488 87.181 39.5717C88.8803 39.5786 90.5666 39.8683 92.1707 40.4291C94.6999 41.3237 96.0317 43.3559 96.2803 46.0225C96.3889 47.1658 96.3546 48.309 96.3546 49.4523C96.3546 67.447 96.3546 85.4418 96.3546 103.437V106.995L98.3808 107.281C98.5494 106.935 98.758 106.692 98.7723 106.44C98.8352 105.394 98.8581 104.348 98.8581 103.297C98.8581 90.8236 98.8657 78.3517 98.8809 65.8808C98.8643 64.8481 99.0338 63.8209 99.3811 62.8483C99.5554 62.391 100.43 61.888 100.921 61.9509C101.413 62.0137 102.085 62.6825 102.213 63.2027C102.459 64.1973 102.427 65.2749 102.427 66.3181C102.439 78.7033 102.439 91.0809 102.427 103.451V107.138C103.996 107.201 105.285 107.235 106.583 107.306C107.334 107.346 108.209 107.226 108.795 107.572C109.08 107.779 109.318 108.044 109.491 108.351C109.664 108.658 109.769 108.999 109.798 109.35C109.812 109.756 109.055 110.365 108.523 110.565C107.935 110.788 107.212 110.662 106.546 110.662H3.41503C2.94063 110.662 2.46337 110.648 1.98611 110.662C0.983012 110.662 0.294275 110.245 0.271412 109.196C0.242834 108.092 0.808684 107.378 1.98611 107.341C3.41503 107.292 4.84394 107.315 6.27286 107.275C6.68326 107.223 7.08861 107.137 7.4846 107.018V35.5389C6.62725 35.4532 5.89848 35.3817 5.16402 35.3045C2.81202 35.0616 1.04302 33.6468 0.394297 31.4889C-0.277294 29.2653 0.360008 26.3986 2.18616 25.2896C4.52673 23.8606 7.07877 22.8031 9.54222 21.5884C9.634 21.5556 9.73056 21.5383 9.828 21.5369C10.7539 21.4026 11.8285 21.0367 12.2943 22.2143C12.7601 23.3918 12.0828 24.215 11.0254 24.718C9.57652 25.3982 8.08473 26.0013 6.6501 26.7187C5.81275 27.136 4.80965 27.5419 4.32668 28.2535C3.88085 28.9109 3.78655 30.037 4.0066 30.8259C4.14378 31.3203 5.12688 31.8205 5.76417 31.8748C6.60878 31.8977 7.44601 31.7121 8.2019 31.3345C17.8118 26.9025 27.4123 22.4449 37.0031 17.9614C42.3987 15.4386 47.7734 12.872 53.127 10.2616C54.4445 9.61563 55.5562 9.5499 56.8965 10.193C65.851 14.4802 74.8161 18.7302 83.7916 22.9431C89.8616 25.8013 95.9431 28.6356 102.036 31.4461C102.737 31.7145 103.476 31.8726 104.225 31.9148C105.345 32.0434 106.168 31.3917 106.334 30.4142C106.42 29.6156 106.189 28.815 105.691 28.185C105.102 27.5047 104.182 27.0645 103.336 26.6616C96.4261 23.3804 89.5053 20.1203 82.5741 16.881C75.9783 13.8028 69.3624 10.7761 62.7636 7.71214C60.8746 6.8347 58.9799 5.97154 57.1451 4.99406C55.7648 4.25666 54.5531 4.29951 53.127 4.97117C44.8393 8.88109 36.503 12.6881 28.1982 16.5638C25.2003 17.9614 22.2424 19.4448 19.2589 20.8767C18.7602 21.1511 18.2293 21.3623 17.6785 21.5055C16.6497 21.7113 15.4408 21.9599 14.955 20.6995C14.4691 19.439 15.5494 18.8103 16.4468 18.3044C17.5127 17.7042 18.6559 17.2412 19.7676 16.7238C25.6737 13.9686 31.5799 11.2153 37.4861 8.46387C42.4473 6.14593 47.3971 3.79366 52.3726 1.5043C53.1921 1.1143 54.0877 0.910242 54.9952 0.906783C55.9028 0.903324 56.7999 1.10053 57.6224 1.48427C62.958 3.91082 68.265 6.406 73.5777 8.88114C79.0533 11.4325 84.526 13.9895 89.9959 16.5523C95.3058 19.0417 100.619 21.5226 105.908 24.0549C107.269 24.7094 108.48 25.5355 109.286 26.9617C111.23 30.4543 109.066 34.8701 105.105 35.316C104.354 35.396 103.611 35.4389 102.648 35.5217ZM92.9309 107.126V48.9835C92.9309 48.2232 92.9566 47.4572 92.888 46.697C92.7023 44.6334 91.5449 43.433 89.4787 43.1501C88.9087 43.0979 88.3358 43.0846 87.764 43.1101C65.9682 43.1101 44.1706 43.1101 22.371 43.1101C18.2243 43.1101 17.2727 44.0304 17.2698 48.0832C17.2565 67.0212 17.2565 85.9572 17.2698 104.891C17.2698 105.617 17.3841 106.343 17.467 107.301C19.7218 107.301 21.7995 107.301 23.8743 107.301C25.949 107.301 27.9752 107.241 29.95 107.209V99.7782L27.7495 99.1551C24.3601 98.1833 23.2855 96.7886 23.2627 93.2388C23.2427 90.0948 23.1798 86.9509 23.3056 83.807C23.3638 82.6917 23.6934 81.6076 24.2658 80.6487C25.5232 78.5651 27.6952 78.1307 30.1158 78.1079L31.2389 74.7639C30.0415 74.641 29.2013 74.6124 28.3811 74.4609C26.3234 74.075 25.0631 72.6203 24.9517 70.5453C24.9145 69.785 24.9202 69.0219 24.9517 68.2588C25.0431 65.6864 26.232 64.5089 28.7669 64.3545C30.4387 64.2545 32.5849 64.6232 33.6395 63.7372C34.694 62.8512 34.8255 60.6618 35.2227 59.0155C36.5402 53.5251 39.4151 50.2383 45.6767 50.1068C51.9382 49.9753 58.2511 50.001 64.5212 50.1267C66.5731 50.1696 68.6508 50.4897 70.4569 51.7931C72.7432 53.4422 73.9549 55.6916 74.6351 58.3353C75.1495 60.336 75.7268 62.2938 76.3069 64.3803C78.2559 64.3803 79.9649 64.3288 81.6682 64.3946C83.32 64.4603 84.4174 65.3234 84.8747 66.7296C86.3693 71.3341 84.5146 74.1608 79.7306 74.6095C79.5677 74.6267 79.4191 74.7924 79.019 75.0382C79.2733 75.9928 79.5448 77.0389 79.8135 78.045C80.8309 78.1479 81.6053 78.1336 82.3284 78.3308C84.4146 78.8653 86.5437 80.2029 86.6351 82.961C86.7637 86.8566 86.7923 90.7665 86.6351 94.6593C86.5465 96.8086 85.3577 98.3749 83.0743 98.9065C82.1655 99.1151 81.291 99.4781 80.1764 99.8382V107.118L92.9309 107.126ZM67.782 99.5009C66.6932 99.4352 65.6786 99.3295 64.6641 99.3237C60.5745 99.3037 56.4821 99.3237 52.3926 99.298C51.5446 99.3333 50.6973 99.2142 49.892 98.9465C49.3918 98.7492 48.7174 97.989 48.786 97.5974C48.8666 97.2605 49.0196 96.9451 49.2343 96.6732C49.4489 96.4013 49.7202 96.1793 50.0291 96.0226C50.7808 95.7368 51.7095 95.8283 52.5612 95.8254C61.5062 95.8254 70.4493 95.8254 79.3905 95.8254C80.6908 95.8254 82.0654 96.0112 83.26 94.745C83.26 91.2552 83.3057 87.6483 83.2371 84.0442C83.2086 82.4036 82.6056 81.8663 80.9966 81.7005C80.3365 81.6348 79.6649 81.6748 78.9961 81.6748H54.4531C46.2711 81.6748 38.0891 81.6577 29.91 81.6748C27.2694 81.6748 26.7664 82.2235 26.7178 84.8702C26.6835 87.3425 26.7007 89.8147 26.7178 92.3013C26.735 95.5796 26.9493 95.8025 30.353 95.8254C34.251 95.854 38.152 95.8254 42.0529 95.8426C42.8103 95.8426 43.6304 95.7854 44.302 96.0569C44.8164 96.2627 45.4137 96.9144 45.468 97.4231C45.5223 97.9319 45.0222 98.6292 44.5592 98.9236C43.8677 99.3609 42.9989 99.4952 42.1129 99.8153C41.9815 102.293 41.8557 104.697 41.73 107.095C46.6255 107.667 66.4617 107.441 68.3078 106.858C68.1306 104.471 67.9649 102.128 67.7791 99.5009H67.782ZM76.004 78.0649C75.7811 76.8788 75.6525 75.8671 75.3952 74.8867C74.0492 69.7736 72.506 64.7033 71.3543 59.5472C70.4798 55.6344 68.3907 53.5708 64.0182 53.5679C58.0168 53.5679 52.0439 53.5136 46.0596 53.5822C41.9015 53.6308 39.9067 54.8313 38.6835 59.5186C37.5861 63.7229 36.4487 67.9186 35.3913 72.1343C34.9169 74.0264 34.5911 75.9556 34.1567 78.0649H76.004ZM33.568 99.5524C33.4909 100.581 33.4166 101.23 33.3994 101.882C33.3661 102.729 33.3756 103.577 33.428 104.423C33.5823 106.349 34.3911 107.261 35.8686 107.264C37.2975 107.264 38.2949 106.286 38.4406 104.48C38.5692 102.922 38.4692 101.336 38.4692 99.5524H33.568ZM71.5 99.6038C71.6458 101.75 71.6344 103.605 71.9459 105.429C72.1431 106.572 72.9547 107.407 74.3836 107.275C75.8125 107.144 76.4012 106.266 76.4698 105.04C76.567 103.279 76.4927 101.507 76.4927 99.6096L71.5 99.6038ZM28.3839 67.9329C28.4868 69.1076 28.5697 70.0594 28.6497 70.9482C32.2077 71.234 32.3649 71.1083 32.6678 67.9329H28.3839ZM77.49 67.8901C77.6872 71.2226 78.1445 71.5313 81.4138 70.691V67.8901H77.49Z" fill="#A4A0C6"/>
<path d="M54.819 36.2564C52.2612 36.2564 49.7035 36.2564 47.1457 36.2564C46.5742 36.2564 45.9111 36.3907 45.471 36.1421C44.8709 35.8019 44.1021 35.1874 44.0421 34.6301C43.9964 34.1299 44.7109 33.3439 45.2796 33.0495C45.9054 32.7294 46.7456 32.7637 47.4944 32.7637C52.5127 32.7409 57.532 32.7409 62.5523 32.7637C63.2132 32.7383 63.8745 32.8018 64.5185 32.9524C65.3758 33.1925 66.2818 33.7298 65.9217 34.7101C65.6873 35.3504 64.8214 36.1392 64.1813 36.185C62.0207 36.3736 59.8317 36.2707 57.654 36.2764L54.819 36.2564Z" fill="#A4A0C6"/>
<path d="M55.0876 30.243C52.2298 30.243 49.3719 30.263 46.5141 30.243C45.371 30.243 43.9421 30.3201 44.0049 28.6967C44.0678 27.4134 45.1938 26.8618 46.4769 26.8618C52.1926 26.8618 57.9083 26.8618 63.6239 26.8761C64.0812 26.8761 64.7071 26.9304 64.9586 27.2191C65.4101 27.7335 65.8702 28.4452 65.8674 29.074C65.8674 29.4484 65.0443 29.9743 64.4985 30.1544C63.8926 30.3545 63.181 30.2544 62.5151 30.2544C60.0402 30.2544 57.5654 30.2544 55.0848 30.2544L55.0876 30.243Z" fill="#A4A0C6"/>
<path d="M55.1622 21.3139C57.637 21.3139 60.1091 21.3139 62.5925 21.3139C63.2555 21.3139 63.97 21.2509 64.5673 21.4739C65.1046 21.6711 65.9076 22.237 65.8876 22.6171C65.8465 22.9664 65.737 23.3043 65.5654 23.6112C65.3938 23.9182 65.1634 24.1884 64.8874 24.4063C64.4215 24.7607 63.6299 24.7807 62.9812 24.7836C57.6513 24.8093 52.3243 24.7979 46.9945 24.7836C46.6144 24.7836 46.1371 24.8808 45.8771 24.6893C45.1798 24.1462 44.1624 23.546 44.0395 22.8372C43.848 21.6368 45.074 21.3824 46.04 21.3653C49.0836 21.3167 52.13 21.3481 55.185 21.3481L55.1622 21.3139Z" fill="#A4A0C6"/>
<path d="M55.3443 86.9396C57.5248 86.9396 59.7082 86.8967 61.8888 86.9596C62.732 86.9508 63.5672 87.1233 64.3379 87.4655C64.8066 87.7056 65.2867 88.5001 65.2381 89.0002C65.1953 89.4576 64.5237 90.0292 64.0035 90.2264C63.2801 90.4519 62.5227 90.5486 61.7658 90.5122C57.3057 90.5351 52.8466 90.5351 48.3883 90.5122C47.7282 90.5122 47.0023 90.558 46.425 90.3093C45.8477 90.0606 45.0818 89.549 44.9132 88.9974C44.6274 88.0428 45.3447 87.3854 46.2621 87.1682C47.002 87.0164 47.756 86.9446 48.5112 86.9539C50.7918 86.9224 53.058 86.9367 55.3443 86.9396Z" fill="#A4A0C6"/>
<path d="M39.8181 88.8544C40.0781 91.4267 37.3889 93.8047 34.9426 93.5761C32.442 93.3388 30.2243 91.3839 30.1586 88.9287C30.0929 86.3736 32.3849 84.0528 35.0169 84.0156C37.7433 83.9785 39.8266 86.0735 39.8181 88.8544ZM35.1169 90.6751C35.6656 89.8348 36.2601 89.3232 36.1972 88.9116C36.1258 88.4515 35.4313 87.7312 35.0541 87.7684C34.5882 87.8084 33.8852 88.4629 33.8338 88.9116C33.7823 89.3604 34.4654 89.8262 35.1169 90.6751Z" fill="#A4A0C6"/>
<path d="M74.9207 93.5301C72.1686 93.513 70.3024 91.6323 70.2738 88.8742C70.2367 85.4874 72.9659 83.964 75.0864 84.0154C76.3351 84.0442 77.524 84.5562 78.4029 85.4437C79.2818 86.3313 79.7823 87.5252 79.799 88.7742C79.8218 91.5295 77.7499 93.5501 74.9207 93.5301ZM76.8183 89.0543C76.0181 88.4113 75.6294 87.9111 75.1264 87.7424C74.3462 87.4938 73.809 88.0282 73.9376 88.7799C74.0233 89.2601 74.5291 89.9489 74.9349 90.0175C75.3407 90.0861 75.9209 89.5488 76.8183 89.0543Z" fill="#A4A0C6"/>
<path d="M55.0907 76.3447C50.1467 76.3447 45.2055 76.3675 40.2614 76.3447C37.1635 76.3275 36.6777 75.4872 37.5208 72.4976C38.5667 68.7648 39.4269 64.9807 40.4015 61.2251C40.6414 60.1186 40.9958 59.04 41.4589 58.0069C42.1219 56.6836 43.1507 55.809 44.8225 55.8204C51.6642 55.8633 58.5087 55.8462 65.3532 55.8376C67.2565 55.8376 68.2825 56.9808 68.8598 58.5899C69.437 60.1991 69.9143 61.8282 70.3401 63.4745C71.1689 66.6785 71.9462 69.8967 72.7093 73.1178C73.2637 75.4558 72.6292 76.3132 70.2058 76.3361C65.1674 76.3761 60.1291 76.3418 55.0907 76.3447ZM69.0398 72.7862C67.8195 68.1132 66.6621 63.6889 65.4875 59.1902C58.8373 59.1902 52.5587 59.2216 46.2829 59.1644C44.8054 59.1501 44.2567 59.9418 43.948 61.1451C43.145 64.2662 42.3248 67.3844 41.5703 70.5198C41.4017 71.2143 41.4731 71.9688 41.4274 72.7862H69.0398Z" fill="#A4A0C6"/>
</svg>
