<svg width="110" height="102" viewBox="0 0 110 102" fill="none" xmlns="http://www.w3.org/2000/svg">
<path d="M109.353 74.0432C109.353 71.4309 109.33 68.7299 109.353 66.0719C109.353 62.9822 106.209 58.6836 102.808 58.3549C101.365 58.2177 99.8849 58.1091 98.456 58.0062C97.5529 57.9405 96.647 57.8748 95.7439 57.8004C95.0809 57.7461 94.435 57.6747 93.6891 57.5918L92.546 57.4661L91.5829 57.366L95.2981 48.6544C97.8901 42.5838 100.419 36.6503 102.957 30.7454C103.797 28.7905 104.644 26.8374 105.498 24.8863C106.518 22.5397 107.572 20.116 108.593 17.7238C108.915 17.0231 109.118 16.2734 109.193 15.5059C109.261 14.3998 108.287 13.188 107.149 12.965C105.852 12.7106 104.617 13.5223 103.929 15.0829C103.24 16.6434 102.54 18.3154 101.874 19.8988C101.391 21.0421 100.891 22.2453 100.388 23.4143C99.1247 26.3467 97.8549 29.2763 96.5784 32.203C93.3833 39.5599 90.0796 47.1653 86.9817 54.7051C85.9072 57.3174 84.384 57.849 82.1234 57.849H82.0749C69.0289 57.8061 55.7657 57.809 42.9397 57.8119C38.0871 57.8119 33.2365 57.8119 28.3877 57.8119C24.9583 57.8119 24.6725 57.629 23.3664 54.5393L23.3378 54.4708C18.7653 43.687 13.907 32.2059 9.01442 20.7734C8.12563 18.6927 7.16824 16.4862 6.07084 14.3769C5.90552 14.0575 5.678 13.7744 5.40169 13.5442C5.12539 13.314 4.80586 13.1414 4.46188 13.0365C3.87077 12.8446 3.22782 12.8939 2.67287 13.1737C2.07536 13.4867 1.61903 14.015 1.39619 14.6517C1.17336 15.2884 1.20068 15.9861 1.47259 16.6034C2.59001 19.25 3.75886 21.9338 4.86484 24.529C5.48594 25.9733 6.10514 27.4147 6.72243 28.8533L7.99701 31.8287C11.1692 39.2341 14.4471 46.8881 17.6479 54.4278C17.8431 54.9402 17.9783 55.4735 18.0508 56.017C18.1023 56.3028 18.1566 56.6201 18.2309 56.963L18.4195 57.8205H17.5336C16.6763 57.8205 15.8532 57.8205 15.0587 57.8033C13.4297 57.7862 11.8865 57.7719 10.3719 57.8348C4.1904 58.092 1.22681 62.1591 1.10106 65.8375C0.840999 73.1372 0.932454 80.414 1.06963 87.2049C1.14393 90.8576 4.49901 94.3673 8.41424 94.8704L13.6241 95.5421L13.7327 96.0279C13.8731 96.7147 13.96 97.4113 13.9927 98.1115C14.1642 100.449 14.35 101.573 16.7163 101.624C17.3152 101.589 17.8932 101.392 18.3881 101.053C19.2855 100.481 19.3683 99.672 19.4369 98.2915C19.445 97.3998 19.5787 96.5136 19.8341 95.6592L19.9999 95.1733H86.2101H86.7503H87.3019C87.6134 95.1733 87.9306 95.1734 88.2478 95.1962C90.5512 95.3277 90.9885 95.7421 91.1685 97.9743C91.1828 98.1645 91.1876 98.3553 91.1828 98.5459C91.1795 98.7243 91.1852 98.9026 91.1999 99.0804C91.4057 100.812 92.2202 101.627 93.772 101.653H93.8149C95.3924 101.653 96.3555 100.701 96.527 98.9661C96.587 98.3573 96.6212 97.7371 96.6584 97.0826C96.6755 96.7682 96.6955 96.4452 96.7155 96.1108L96.7556 95.5192L101.748 94.899C106.124 94.3559 109.239 91.0691 109.321 86.8962C109.39 82.6176 109.37 78.259 109.353 74.0432ZM104.026 85.8473C103.994 88.5911 102.96 89.6629 100.073 89.943C99.6848 89.9801 99.2962 89.9916 98.9161 89.9916H98.3074H97.7215H12.6152H12.0694C11.5779 89.9916 11.072 89.9916 10.5605 89.9658C7.54261 89.7343 6.30231 88.4396 6.27373 85.4985C6.21943 79.8366 6.21943 73.8774 6.27373 67.7781C6.30517 64.3484 7.48829 63.1766 10.9663 63.1594C17.1992 63.1337 23.5408 63.1366 29.6651 63.1423H98.1616C98.7018 63.1423 99.2619 63.1423 99.8192 63.1423C102.934 63.2938 103.997 64.3313 104.032 67.258C104.097 73.3544 104.097 79.6051 104.026 85.8473Z" fill="#A4A0C6"/>
<path d="M89.0365 17.3753C88.1791 18.3385 87.1217 18.5786 86.0614 18.0527C85.3743 17.6964 84.7428 17.242 84.1868 16.7036C79.9853 12.7189 75.0001 9.65284 69.5489 7.70054C65.105 6.12571 61.2612 5.334 58.1176 5.334C57.5065 5.33214 56.8959 5.36461 56.2886 5.4312C44.7972 5.22827 35.032 8.86093 26.4442 16.5522L26.3471 16.6379C25.873 17.0972 25.3519 17.5053 24.7924 17.8555C23.4864 18.5986 22.1718 18.4271 21.363 17.3925C20.6485 16.4865 20.5914 14.7801 21.5945 13.9341L22.3261 13.3168C24.9124 11.1332 27.5845 8.87812 30.4538 7.09179C33.4524 5.23351 36.6516 3.7205 39.9903 2.58165C43.5455 1.36409 47.3635 0.183691 51.4016 0.229421C52.4305 0.229421 53.4707 0.229421 54.4767 0.229421C57.8203 0.206556 61.2812 0.180796 64.622 0.906761C73.3371 2.74362 81.3832 6.93166 87.8876 13.0167C88.3419 13.4305 88.7554 13.887 89.1222 14.38C89.8939 15.4575 89.8738 16.4379 89.0365 17.3753Z" fill="#A4A0C6"/>
<path d="M79.586 26.8012C78.3457 27.9273 77.014 27.3557 76.1109 26.6755C75.5394 26.241 74.9678 25.7751 74.3962 25.3236C73.8247 24.872 73.3302 24.4661 72.7815 24.0374C67.8427 20.1994 61.7575 18.1328 55.5031 18.1697C53.254 18.1779 51.0112 18.4076 48.8072 18.8556C43.8403 19.8416 39.2906 22.2082 35.2896 25.8837C34.9934 26.1451 34.6803 26.3867 34.3523 26.6069L34.238 26.6897C33.3806 27.2956 31.7459 28.0702 30.417 26.4382C29.7054 25.5636 29.7626 23.7887 30.9 22.8141L30.96 22.7626C33.052 20.9763 35.2124 19.1271 37.553 17.7209C42.8371 14.5261 48.8998 12.8508 55.0744 12.8793H55.3402C64.5167 13.0622 72.4157 16.2004 78.8173 22.2139C78.9402 22.3282 79.0659 22.4369 79.1945 22.5426C79.3988 22.7004 79.5848 22.8806 79.7489 23.0799C80.632 24.2632 80.5548 25.9323 79.586 26.8012Z" fill="#A4A0C6"/>
<path d="M70.5639 35.9103C69.7065 36.7106 68.1719 36.6877 67.0545 35.8589C66.7029 35.5988 66.3486 35.3187 66.0057 35.0472C65.0893 34.2735 64.0963 33.5954 63.0421 33.0236C56.4377 29.7139 50.039 30.437 44.0204 35.1787C43.319 35.7549 42.5096 36.1853 41.6398 36.4448C40.6795 36.6877 39.9794 36.2676 39.2192 34.9957C38.7448 34.204 38.8191 33.5152 39.4735 32.6149C41.1882 30.277 43.6974 28.8593 45.9408 27.7789C48.6701 26.4642 51.0849 25.8154 53.2426 25.8154C53.7678 25.815 54.2923 25.8541 54.8115 25.9326L54.8887 25.9469H54.9687C60.1128 25.6039 64.7139 27.2016 69.4064 30.9772C69.8877 31.3516 70.3232 31.7814 70.7039 32.2577C71.6842 33.5095 71.6299 34.9099 70.5639 35.9103Z" fill="#A4A0C6"/>
<path d="M61.9896 44.3501C61.4523 45.2247 60.1948 45.662 59.0574 45.3705L58.8517 45.3191C58.6345 45.2841 58.4248 45.2126 58.2315 45.1076C56.3339 43.7328 54.422 43.7128 52.2129 45.0447C50.7554 45.925 49.2065 45.4791 48.6064 44.5588C47.8433 43.3898 48.2034 41.8893 49.5237 40.7403C51.2384 39.2398 53.1817 38.6196 56.151 38.6196H56.4025C57.7371 38.6711 59.8519 39.5199 61.5752 41.312C61.9657 41.7041 62.2175 42.2131 62.2923 42.7615C62.3671 43.3099 62.2608 43.8677 61.9896 44.3501Z" fill="#A4A0C6"/>
<path d="M83.5498 77.5562C83.5782 78.2403 83.5677 78.9255 83.5183 79.6084C83.3811 81.1003 82.2637 82.2921 80.9749 82.3236C79.6374 82.3522 78.3142 80.9974 78.2399 79.5312C78.118 77.4789 78.118 75.4213 78.2399 73.369C78.3124 72.6106 78.6699 71.9079 79.2401 71.4027C79.6978 70.9443 80.3082 70.6706 80.9548 70.6338H81.0548C82.2865 70.7138 83.3926 71.9943 83.5183 73.4919C83.5653 74.1873 83.5748 74.8848 83.5469 75.5812C83.5469 75.9042 83.5469 76.2301 83.5469 76.553C83.5469 76.876 83.5412 77.219 83.5498 77.5562Z" fill="#A4A0C6"/>
<path d="M70.7267 79.8569C70.6324 81.223 69.0977 82.3806 67.9775 82.3263C66.6972 82.2692 65.5998 81.0545 65.4769 79.5625C65.4169 78.8137 65.434 78.062 65.4483 77.276C65.4483 76.9245 65.4655 76.5729 65.4655 76.2213C65.4655 75.9155 65.4655 75.6097 65.4655 75.3039C65.439 74.6846 65.4485 74.0643 65.494 73.4461C65.6284 71.9799 66.7743 70.6937 67.9918 70.6423C69.1063 70.5822 70.6267 71.8055 70.7267 73.1574C70.8878 75.3877 70.8878 77.6266 70.7267 79.8569Z" fill="#A4A0C6"/>
<path d="M96.478 79.5484C96.3894 81.1547 94.929 82.3722 93.7259 82.3236C92.4427 82.2836 91.331 81.0861 91.1996 79.5941C91.1511 78.9064 91.1416 78.2165 91.171 77.5277C91.171 77.1962 91.1853 76.8646 91.1853 76.5331C91.1853 76.2015 91.1853 75.8786 91.171 75.5528C91.1421 74.8592 91.1507 74.1646 91.1967 73.472C91.3224 71.9801 92.4342 70.7082 93.6716 70.6367H93.7574C94.9005 70.6367 96.3723 71.8915 96.4694 73.3891C96.5953 75.4402 96.5982 77.497 96.478 79.5484Z" fill="#A4A0C6"/>
</svg>
