<svg width="106" height="111" viewBox="0 0 106 111" fill="none" xmlns="http://www.w3.org/2000/svg">
<path d="M6.21625 32.5817C4.50155 33.3677 4.5987 34.4852 4.95307 35.6313C7.63658 44.3114 10.5201 52.9344 12.975 61.6803C15.0326 69.0057 18.9765 75.0849 24.072 80.5439C24.715 81.2328 25.3866 81.9016 25.9896 82.6247C27.1327 84.008 28.6245 85.2741 29.2618 86.8718C29.8991 88.4695 29.659 90.3959 29.8333 92.3937H46.6774C47.6434 88.6982 46.566 85.3256 44.9627 82.0616C44.4255 80.9612 43.6681 79.9666 42.9965 78.9319C41.9449 77.3085 42.0106 76.0367 43.1994 75.245C44.3883 74.4533 45.6 74.6933 46.606 76.1653C48.6436 79.1463 50.5212 82.2302 51.0756 85.9058C51.3986 88.0465 51.7529 90.193 52.1073 92.4166C53.0761 92.7024 53.762 92.5766 53.822 91.3648C53.8877 90.3216 53.8877 89.2726 53.9963 88.2208C54.6451 81.9815 57.8458 77.0313 61.964 72.5498C62.3266 72.1144 62.7191 71.7047 63.1385 71.3236C69.7115 65.9503 74.0383 58.8308 78.3308 51.6854C79.3024 50.0734 80.1969 48.2557 82.1889 47.684C83.5292 47.2925 84.9495 47.1667 86.8099 46.8408C87.8102 44.7544 88.9962 42.2965 90.1708 39.8299C91.3911 37.2719 92.5971 34.7081 93.8116 32.1444C95.3863 28.8261 99.4416 27.1312 102.577 29.1605C104.9 30.6639 105.957 33.6363 104.943 36.9575C102.117 46.1921 99.2272 55.4067 96.4208 64.6441C94.4003 71.295 90.7852 76.9798 86.1469 82.0787C84.7437 83.6193 83.4606 85.2684 82.0145 86.7661C80.4427 88.3924 80.014 90.1415 81.0086 92.268C81.2359 92.397 81.4803 92.4932 81.7345 92.5538C84.658 92.8568 85.001 93.1397 85.0553 95.9836C85.122 99.4133 85.122 102.843 85.0553 106.273C85.001 109.314 84.3094 109.988 81.3401 109.988C62.2879 110.006 43.2433 110.006 24.2063 109.988C21.3142 109.988 20.4368 109.165 20.3511 106.299C20.2653 103.352 20.3168 100.399 20.3254 97.4383C20.3254 93.1911 20.5254 92.9739 24.6121 92.328C25.2866 90.3502 25.2666 88.6725 23.609 86.9176C20.8826 84.0337 18.5449 80.7869 15.9157 77.803C12.9721 74.4618 11.1431 70.549 9.81711 66.3705C7.34508 58.6135 4.98452 50.8194 2.57251 43.0425C1.9838 41.1447 1.35791 39.2554 0.803495 37.349C0.565343 36.5265 0.404624 35.6835 0.323399 34.8311C0.0376156 31.71 1.31507 29.7322 4.11003 28.5432C6.34199 27.6028 9.75423 28.9376 10.8774 30.8697C12.0576 32.9046 13.1236 35.0139 14.1439 37.1375C15.4585 39.8756 16.7159 42.6451 17.9191 45.4261C18.4306 46.5951 19.0622 47.2439 20.4911 47.121C23.1232 46.8924 25.0008 48.2242 26.3697 50.3735C28.5045 53.729 30.6564 57.0787 32.7626 60.4456C33.0484 60.92 33.4685 61.5173 33.3971 61.9946C33.2685 62.8521 33.0055 63.8239 32.4511 64.4298C31.7081 65.2415 30.6736 65.0014 29.9277 64.2068C29.4226 63.6513 28.9736 63.0473 28.5873 62.4034C26.7155 59.4452 24.8893 56.4585 23.0003 53.5117C22.4659 52.6772 21.9857 51.694 20.794 51.4282C19.7395 52.4885 19.9367 53.6775 20.2968 54.6978C21.5771 58.4534 22.9888 62.1662 24.3463 65.896C24.6321 66.6992 24.9693 67.4937 25.2037 68.314C25.5352 69.5459 25.2551 70.652 24.0291 71.195C22.7574 71.7666 21.7428 71.115 21.1713 70.0117C20.2025 68.071 19.2108 66.1075 18.5707 64.0468C17.2846 59.9025 15.6642 55.8754 15.327 51.4196C15.1584 49.1759 13.6837 47.0095 12.7007 44.8459C11.2117 41.579 9.67991 38.3293 8.07666 35.1282C7.61941 34.2136 6.83354 33.4162 6.21625 32.5817ZM75.6816 92.4394C75.8102 92.0307 76.0074 91.7478 75.9673 91.5134C75.21 87.7978 77.1505 85.1855 79.4939 82.7247C80.0826 82.1073 80.6542 81.47 81.2086 80.8126C84.0321 77.4028 87.3729 74.3304 89.2105 70.2375C90.7595 66.8078 91.9655 63.2037 93.1458 59.6167C94.8919 54.3206 96.4895 48.973 98.1299 43.6398C98.9872 40.8359 99.8874 38.0378 100.593 35.194C100.762 34.5137 100.47 33.3105 99.9646 32.959C98.99 32.2816 98.5528 33.442 98.0613 34.0822C97.7711 34.4499 97.521 34.8475 97.3153 35.2683C95.0291 40.1481 92.7428 45.0317 90.4565 49.9191C90.2565 50.3449 89.9822 50.828 90.0165 51.2624C90.3022 54.6922 89.0477 57.8018 87.9845 60.9257C86.9814 63.8724 85.7983 66.7649 84.578 69.6316C83.9007 71.215 82.5975 71.758 81.4344 71.2121C80.2084 70.6405 79.8197 69.3801 80.4027 67.7824C80.4999 67.5194 80.7171 67.2994 80.8142 67.0364C82.2431 63.1294 83.6721 59.2251 85.0324 55.3009C85.2969 54.6272 85.4085 53.9031 85.3591 53.1809C85.3097 52.4588 85.1004 51.7566 84.7466 51.1252C83.9921 51.874 83.4091 52.297 83.0319 52.8601C81.8745 54.575 80.7457 56.3385 79.6911 58.1248C76.5475 63.4152 73.0581 68.414 68.3912 72.564C65.8763 74.8076 63.7301 77.5257 61.7125 80.2467C59.0661 83.8136 58.0859 87.895 58.9061 92.4251L75.6816 92.4394ZM25.3094 97.2211V105.372C33.7343 105.355 41.9277 105.407 50.264 105.338V97.2211H25.3094ZM80.2312 97.0182C71.7578 97.0725 63.5729 96.9096 55.3938 97.1297V105.37C63.7701 105.344 71.9693 105.444 80.2312 105.301V97.0182Z" fill="#A4A0C6"/>
<path d="M50.438 15.5874H57.5425C58.3049 15.5541 59.0687 15.5713 59.8288 15.6388C61.1263 15.8217 62.0351 16.8192 61.9293 17.9253C61.855 18.6999 60.8319 19.6402 60.0089 20.0089C59.1144 20.4062 57.9598 20.2604 56.9195 20.2776C54.9419 20.309 52.9672 20.2776 50.7638 20.2776V29.2521C53.7531 29.2521 56.5995 29.3836 59.4258 29.2121C61.9122 29.0606 63.1639 30.1295 64.1013 32.356C65.6016 35.9258 67.4306 39.3585 69.111 42.8311C69.9284 42.8968 70.5914 42.9225 71.2458 43.0083C71.5101 43.0269 71.7674 43.1018 72.0004 43.2279C72.2334 43.354 72.4368 43.5283 72.597 43.7394C72.7572 43.9505 72.8704 44.1933 72.9292 44.4517C72.9879 44.7101 72.9908 44.978 72.9377 45.2376C72.8273 45.6725 72.6219 46.0774 72.3363 46.4234C72.0507 46.7693 71.6919 47.0476 71.2859 47.2383C68.2423 48.3587 66.0703 47.264 64.6528 44.2115C63.3382 41.3791 61.8893 38.6068 60.6919 35.7315C60.0689 34.2367 59.1372 33.7565 57.6368 33.7851C54.8762 33.8365 52.1155 33.8422 49.3491 33.7851C46.6971 33.7251 45.9483 32.9734 45.9197 30.3553C45.8769 25.8852 45.8197 21.4123 45.9454 16.945C45.9997 14.9958 45.5453 13.6639 43.9107 12.372C40.3155 9.55103 40.4641 4.40067 43.9821 1.57399C46.8857 -0.758247 51.3896 -0.360968 53.6788 2.43142C56.1879 5.49534 55.965 9.52816 53.0758 12.1491C52.447 12.7207 51.6668 13.138 51.0753 13.7525C50.7781 14.0869 50.7409 14.6899 50.438 15.5874ZM48.4146 4.61214C47.7991 4.6002 47.2004 4.81348 46.731 5.21189C46.2616 5.61029 45.9538 6.16641 45.8654 6.77577C45.8248 7.10495 45.8541 7.43899 45.9513 7.75608C46.0486 8.07318 46.2117 8.36619 46.4299 8.61596C46.6481 8.86574 46.9165 9.0667 47.2176 9.20566C47.5187 9.34462 47.8458 9.41846 48.1774 9.42239C49.4692 9.47956 50.6723 8.50496 50.8009 7.29883C50.9352 6.03267 49.7464 4.69217 48.4146 4.61214Z" fill="#A4A0C6"/>
<path d="M48.4745 47.7043C40.9584 47.6043 34.2282 41.6194 32.8936 35.2172C31.559 28.815 33.8567 22.2413 39.2551 18.5657C41.2556 17.2052 42.3301 17.1595 43.2018 18.3999C44.0363 19.5889 43.5876 21.0351 41.9129 22.2127C37.9291 25.0136 36.5373 28.8807 37.2146 33.5823C38.2063 40.4418 46.5798 45.032 52.2811 42.071C53.45 41.465 54.5674 40.7419 55.7105 40.0931C56.2821 39.7702 56.8794 39.2357 57.4538 39.2357C58.214 39.2557 59.2542 39.5215 59.6315 40.0474C60.0087 40.5733 60.0373 41.9281 59.6315 42.3168C58.2283 43.6801 56.7222 45.1006 54.9789 45.9037C52.9585 46.8441 50.655 47.1355 48.4745 47.7043Z" fill="#A4A0C6"/>
<path d="M37.6126 67.7367C38.6557 67.6681 39.856 68.6913 39.9388 69.7231C39.9631 70.0009 39.932 70.2808 39.8473 70.5466C39.7627 70.8123 39.6262 71.0587 39.4457 71.2713C39.2652 71.4839 39.0444 71.6587 38.796 71.7854C38.5475 71.9121 38.2764 71.9883 37.9984 72.0096C36.5695 72.1525 35.6064 71.3379 35.5578 69.9574C35.5178 68.9342 36.5466 67.8224 37.6126 67.7367Z" fill="#A4A0C6"/>
</svg>
