<svg width="111" height="103" viewBox="0 0 111 103" fill="none" xmlns="http://www.w3.org/2000/svg">
<path d="M34.5336 91.0389C34.5336 92.8796 34.5593 94.3887 34.5336 95.8978C34.4564 99.6133 32.1701 102.314 28.515 102.546C25.0953 102.752 21.6664 102.752 18.2468 102.546C14.6631 102.343 12.3568 99.7905 12.2082 96.2207C12.131 94.4258 12.1939 92.6252 12.1939 90.896C11.5902 90.4898 10.9653 90.1158 10.322 89.7756C6.16387 87.8578 4.32057 84.5853 4.32057 80.058C4.35486 63.9744 4.35486 47.8917 4.32057 31.81C4.27937 30.9529 4.28414 30.0942 4.33486 29.2376C4.5149 27.6028 4.0205 26.531 2.33438 26.0051C0.905461 25.5621 0.253875 24.3102 0.211007 22.9155C0.119557 19.9716 0.0709738 17.0134 0.228155 14.0724C0.33961 12.0002 1.8857 10.6798 4.0405 10.6255C7.16411 10.5483 10.2934 10.6055 13.6714 10.6055C13.7457 9.46223 13.8114 8.54193 13.8657 7.62447C14.0829 3.98036 16.3978 1.45374 20.0072 0.947851C20.6701 0.855974 21.3385 0.810139 22.0077 0.810666C27.0518 0.810666 32.0958 0.796375 37.1542 0.810666C40.6465 0.827815 43.2128 2.43122 44.4331 5.69806C44.9475 7.06996 44.8332 8.67912 45.0275 10.374H65.1695C65.2238 9.4994 65.281 8.58764 65.3382 7.67304C65.5754 3.9146 67.9588 1.09935 71.7283 0.967877C77.7126 0.736369 83.7312 0.727794 89.704 0.967877C93.6707 1.1165 96.1256 4.11183 96.277 8.15608C96.297 8.81916 96.3399 9.48224 96.3828 10.3625C97.123 10.4369 97.8431 10.5569 98.5662 10.5683C101.038 10.6026 103.516 10.534 105.997 10.6226C108.354 10.7084 109.892 12.226 109.972 14.5783C110.06 17.2392 109.972 19.9058 109.992 22.581C109.992 24.1787 109.166 25.4563 107.831 25.9451C105.891 26.651 105.628 27.8857 105.634 29.6835C105.687 45.1002 105.687 60.516 105.634 75.9309C105.634 77.823 105.988 79.4264 107.103 80.9469C110.183 85.1598 110.335 93.2083 105.451 98.2643C98.7519 105.198 87.2206 103.489 82.8481 95.0174C82.2079 93.7742 81.7335 92.4451 81.1334 91.0389H34.5336ZM105.388 15.2156H4.68351V22.2266H8.25866C19.69 22.2266 31.1213 22.2266 42.5355 22.2438C44.0273 22.2438 45.5191 22.4867 46.9137 22.6068C47.6539 25.7678 47.2338 26.4538 44.5703 26.7225C43.8093 26.7736 43.0462 26.786 42.284 26.7596C32.2873 26.7596 22.2906 26.7596 12.2939 26.7596C11.1879 26.7596 10.0848 26.854 8.80451 26.9111V38.6294C8.80451 52.337 8.80451 66.0427 8.80451 79.7465C8.80451 84.0908 10.765 86.0887 14.9889 86.103C23.5624 86.1353 32.1311 86.1353 40.6951 86.103C41.4715 86.0521 42.2444 85.9567 43.0099 85.8171V82.5074C43.0099 74.7047 43.0328 66.8992 43.0099 59.0965C43.0099 55.7411 44.6217 53.4803 47.6253 52.277C48.7227 51.834 50.0402 51.814 51.2576 51.8111C66.8709 51.7825 82.4851 51.774 98.1003 51.7854C99.1034 51.7854 100.101 51.6911 101.127 51.6397V26.9282C99.8608 26.8625 98.7462 26.7568 97.6345 26.7568C87.4463 26.7425 77.2582 26.7568 67.0729 26.7253C65.9458 26.6793 64.8273 26.5086 63.7378 26.2166C62.7261 25.9822 62.5203 25.1619 62.5518 24.2159C62.5832 23.207 63.0519 22.581 64.0493 22.4667C65.1794 22.3222 66.3166 22.2401 67.4558 22.2209C78.8871 22.2038 90.3185 22.2209 101.733 22.1981C102.922 22.1981 104.11 22.0437 105.382 21.9551L105.388 15.2156ZM101.115 56.5671C99.9036 56.5099 98.8805 56.4213 97.8603 56.4213C82.7309 56.4213 67.6025 56.4213 52.475 56.4213C51.6177 56.4213 50.7603 56.4842 49.903 56.5328C48.4284 56.6185 47.7225 57.5702 47.4224 58.8678C47.3314 59.4346 47.3055 60.01 47.3452 60.5827C47.3452 68.2882 47.3452 75.9928 47.3452 83.6964C47.3452 84.4309 47.4796 85.1655 47.5567 85.9829H81.2706C83.1081 78.3889 90.4728 71.9466 101.115 75.4793V56.5671ZM85.8574 88.4437C85.8317 93.9056 89.9069 97.9013 95.2739 98.1042C100.007 98.2814 104.873 93.5312 104.856 88.478C104.842 83.8393 100.301 79.0462 95.4483 78.9634C90.3156 78.8833 85.3287 83.7764 85.8574 88.4437ZM91.4959 10.4483C92.0932 6.26686 91.433 5.4294 87.5978 5.41797C82.8481 5.41797 78.0984 5.38939 73.3515 5.41797C70.045 5.44083 69.0076 7.13286 70.2079 10.4397L91.4959 10.4483ZM40.1406 10.414C40.2207 9.9938 40.2741 9.56902 40.3007 9.14212C40.2835 6.25255 39.4948 5.42655 36.5855 5.42655C31.55 5.40178 26.5135 5.40178 21.4761 5.42655C19.4385 5.4437 18.4726 6.28399 18.2382 8.18179C18.1496 8.88775 18.3297 9.63088 18.3925 10.4111L40.1406 10.414ZM16.5664 91.1075C16.5664 92.791 16.4464 94.2943 16.5978 95.7691C16.7636 97.3897 17.5609 98.0128 19.2299 98.0556C20.8989 98.0985 22.645 98.0928 24.354 98.0699C29.5695 97.9985 30.2983 99.3447 30.0382 92.0479C29.9826 91.7196 29.8775 91.4015 29.7267 91.1047L16.5664 91.1075Z" fill="#A4A0C6"/>
<path d="M73.4775 46.6121C68.6192 46.6121 63.7609 46.6522 58.9026 46.6121C55.5475 46.575 53.0354 44.5515 52.2324 41.5561C51.3522 38.2636 52.6611 35.2311 55.7904 33.3619C56.2919 33.1035 56.8419 32.9526 57.4051 32.9189C58.4493 32.8076 59.4985 32.7494 60.5487 32.7445C69.3051 32.7445 78.0615 32.7045 86.8179 32.7645C88.404 32.7645 90.133 32.8303 91.5419 33.4448C94.5283 34.7481 95.8915 38.0721 95.1799 41.356C94.8468 42.8492 94.0134 44.1837 92.8179 45.1381C91.6224 46.0926 90.1366 46.6097 88.6069 46.6036C83.5628 46.6665 78.5187 46.6207 73.4747 46.6207L73.4775 46.6121ZM73.7633 37.1803C69.4937 37.1803 65.2241 37.1803 60.9545 37.1803C60.1962 37.1509 59.4368 37.1891 58.6854 37.2947C57.1736 37.5805 56.622 38.3693 56.7278 39.907C56.8392 41.5676 57.708 42.1935 60.2858 42.1935C69.206 42.224 78.1253 42.224 87.0436 42.1935C89.4042 42.1935 90.8388 41.1989 90.9017 39.6926C90.9646 38.1864 89.5757 37.1946 87.1437 37.1775C82.6711 37.1689 78.2129 37.1946 73.7519 37.1918L73.7633 37.1803Z" fill="#A4A0C6"/>
<path d="M27.4835 69.3682C25.6002 69.2738 24.2256 69.0995 22.8595 69.1538C18.8586 69.3139 18.8214 67.1303 20.1989 64.4893C21.7735 61.4654 23.2739 58.4015 24.8 55.3433C24.9286 55.089 24.9915 54.8003 25.1315 54.5574C26.1346 52.8053 27.3177 52.2222 28.518 52.8653C29.8126 53.5627 30.1241 54.7774 29.2982 56.5809C28.5495 58.21 27.6292 59.762 26.8376 61.374C26.3975 62.2743 26.0631 63.226 25.5316 64.5179C26.829 64.5951 27.7407 64.658 28.6523 64.7008C29.5097 64.7409 30.3842 64.6494 31.2101 64.8095C33.2477 65.2039 33.9108 66.3957 33.1534 68.3507C32.679 69.5797 32.0103 70.7344 31.4216 71.9205C30.1613 74.4556 28.9496 77.0194 27.5978 79.5088C27.192 80.2331 26.5721 80.8141 25.8231 81.1722C25.5222 81.3095 25.1905 81.3652 24.8613 81.3338C24.5321 81.3024 24.2169 81.185 23.9474 80.9933C23.6779 80.8016 23.4635 80.5425 23.3257 80.2418C23.1879 79.9411 23.1316 79.6095 23.1624 79.2802C23.2399 78.5439 23.4541 77.8285 23.794 77.1709C24.9172 74.7129 26.0974 72.2834 27.4835 69.3682Z" fill="#A4A0C6"/>
<path d="M40.232 32.7989C44.3073 32.7989 47.1937 35.737 47.2365 39.7356C47.2737 43.1825 43.91 46.9237 40.1062 46.6551C36.1481 46.3693 33.1703 43.5597 33.1417 39.6155C33.1217 36.2429 36.0824 32.373 40.232 32.7989ZM40.232 37.289C38.8574 37.2604 37.9457 38.1064 37.8628 39.4726C37.7771 40.9903 38.683 42.0706 40.0834 42.1249C41.3665 42.1735 42.6126 40.9188 42.584 39.6098C42.565 38.9958 42.311 38.4127 41.8743 37.9807C41.4377 37.5488 40.8517 37.3012 40.2377 37.289H40.232Z" fill="#A4A0C6"/>
<path d="M21.9191 32.8043C25.5999 32.4527 28.7779 36.0168 28.655 39.9496C28.5407 43.7681 25.1027 46.7691 21.3932 46.7205C18.1467 46.6776 14.3372 43.0335 14.603 39.4265C14.8917 35.4938 17.7552 32.7357 21.9191 32.8043ZM21.7162 42.1218C22.3724 42.0919 22.9923 41.812 23.4488 41.3396C23.9053 40.8671 24.1637 40.2378 24.171 39.5809C24.1546 38.9668 23.8983 38.3835 23.4571 37.9561C23.0158 37.5287 22.4247 37.2912 21.8105 37.2944C20.3815 37.2401 19.1898 38.2833 19.1755 39.6295C19.1996 40.2912 19.4764 40.9185 19.9491 41.3821C20.4217 41.8458 21.0542 42.1105 21.7162 42.1218Z" fill="#A4A0C6"/>
<path d="M55.344 22.4438C56.6158 22.5696 57.2845 23.4756 57.0816 24.7961C56.9387 25.7364 55.8299 26.5852 54.8468 26.5109C54.2802 26.4509 53.7589 26.174 53.3919 25.7382C53.0249 25.3024 52.8406 24.7415 52.8777 24.173C53.0121 22.9954 53.998 22.3123 55.344 22.4438Z" fill="#A4A0C6"/>
<path d="M87.7634 65.5988C85.5772 65.5988 83.3909 65.5988 81.1904 65.5988C79.8901 65.5988 78.9899 65.0986 78.9413 63.6181C78.8927 62.1376 79.8129 61.5832 81.0104 61.3316C81.7667 61.217 82.5325 61.1778 83.2966 61.2145C86.4402 61.2145 89.5839 61.2145 92.7132 61.2145C93.2851 61.1922 93.8579 61.2075 94.4279 61.2602C96.2369 61.4945 97.0771 62.3263 96.9685 63.7096C96.8685 65.0329 96.2512 65.5445 94.3307 65.6046C92.1473 65.6732 89.9582 65.6217 87.7577 65.6217L87.7634 65.5988Z" fill="#A4A0C6"/>
<path d="M73.5892 72.8814C73.6549 73.8904 72.4975 75.0794 71.4344 75.1022C71.1485 75.1194 70.8622 75.0769 70.5937 74.9772C70.3252 74.8776 70.0804 74.7231 69.8749 74.5235C69.6695 74.324 69.5079 74.0838 69.4005 73.8183C69.293 73.5528 69.2421 73.2678 69.251 72.9815C69.2342 72.4056 69.4413 71.8456 69.8287 71.4192C70.2162 70.9928 70.7538 70.7332 71.3286 70.695C72.3174 70.6635 73.5092 71.8096 73.5892 72.8814Z" fill="#A4A0C6"/>
<path d="M54.1553 70.7004C55.1841 70.6832 56.2901 71.8179 56.3187 72.9183C56.3473 74.0187 55.2556 75.0876 54.1582 75.0847C53.8742 75.0916 53.5917 75.0402 53.3284 74.9336C53.0651 74.827 52.8264 74.6675 52.6271 74.465C52.4278 74.2625 52.2722 74.0212 52.1698 73.7562C52.0675 73.4912 52.0205 73.2079 52.032 72.924C52.0362 72.3527 52.2583 71.8044 52.6529 71.3912C53.0475 70.978 53.5848 70.7309 54.1553 70.7004Z" fill="#A4A0C6"/>
<path d="M64.9383 72.9324C64.9583 74.0014 63.8466 75.0903 62.7492 75.0817C62.4645 75.0881 62.1816 75.0355 61.9182 74.9272C61.6549 74.8188 61.4168 74.6572 61.2189 74.4523C61.0211 74.2475 60.8678 74.0039 60.7687 73.7369C60.6695 73.4699 60.6268 73.1853 60.643 72.901C60.6477 72.33 60.8722 71.7828 61.2697 71.373C61.6672 70.9632 62.2073 70.7222 62.7778 70.7002C63.7866 70.6945 64.9183 71.8635 64.9383 72.9324Z" fill="#A4A0C6"/>
<path d="M71.2652 65.5243C69.8363 65.49 69.1961 64.8441 69.2361 63.4608C69.2676 62.4061 70.4021 61.3229 71.4252 61.3686C72.4483 61.4143 73.6086 62.6404 73.56 63.6122C73.5029 64.7555 72.5426 65.5558 71.2652 65.5243Z" fill="#A4A0C6"/>
<path d="M61.1967 65.3044C60.6251 63.9411 60.2107 62.8121 61.5625 61.8518C62.4941 61.1887 63.3257 61.2801 64.1345 61.989C64.9433 62.6978 65.1376 63.5295 64.6089 64.527C63.803 66.0589 62.5513 65.4501 61.1967 65.3044Z" fill="#A4A0C6"/>
<path d="M52.6207 65.3015C51.9748 63.8724 51.6605 62.7777 53.0065 61.8317C53.9553 61.1658 54.7784 61.3001 55.5786 62.0118C56.3788 62.7234 56.5245 63.5952 55.9958 64.5669C55.1642 66.0818 53.9125 65.4501 52.6207 65.3015Z" fill="#A4A0C6"/>
<path d="M95.2025 86.237C96.2228 86.1856 97.3231 87.3174 97.3716 88.4664C97.3856 89.0392 97.1732 89.5945 96.7805 90.0118C96.3879 90.4291 95.8466 90.6748 95.274 90.6957C94.705 90.6798 94.163 90.4495 93.7566 90.051C93.3501 89.6524 93.1092 89.1151 93.082 88.5464C93.0849 87.5061 94.2052 86.2885 95.2025 86.237Z" fill="#A4A0C6"/>
</svg>
