<svg width="128" height="128" viewBox="0 0 128 128" fill="none" xmlns="http://www.w3.org/2000/svg">
<path d="M39.103 64.6766C37.3025 63.9563 34.9591 62.9446 32.5643 62.0843C27.2258 60.1636 21.8445 58.3687 16.5118 56.428C13.1053 55.1905 10.2503 53.327 9.33294 49.4485C8.77566 47.0934 9.39009 44.9041 10.1531 42.7576C12.2565 36.8727 14.4399 31.0221 16.5975 25.1544C17.6378 22.3191 19.121 19.9326 22.116 18.7064C23.9752 17.9192 26.0534 17.8179 27.9803 18.4206C30.9639 19.3324 33.8817 20.4585 36.8196 21.516C44.2957 24.2055 51.7746 26.8836 59.2335 29.6131C64.832 31.6595 70.3791 33.8174 75.9919 35.8552C81.3246 37.793 86.6944 39.6194 92.0357 41.5343C95.5995 42.8091 99.1403 44.1495 102.69 45.4671C106.691 46.9514 110.68 48.4367 114.658 49.9229C115.024 50.0147 115.382 50.137 115.727 50.2888C117.242 51.1633 118.668 52.1894 118.759 54.1244C118.851 56.0593 117.505 57.2683 116.013 58.1486C114.244 59.1804 112.338 59.9693 110.297 60.9639C111.78 63.4447 111.203 65.7598 110.297 68.0949C109.137 71.1017 108.077 74.1456 106.948 77.1638C105.862 80.079 103.93 81.1166 101.167 79.8161C99.4518 79.0187 98.5945 79.2673 97.3313 80.5621C94.222 83.7232 90.4011 83.1715 86.7059 81.8568C79.6699 79.3559 72.7025 76.6893 65.6894 74.097C64.0919 73.5054 62.4915 72.9223 60.8797 72.3821C59.8251 72.022 58.9906 72.1877 58.059 73.0338C56.6809 74.3051 55.1299 75.3751 53.4521 76.212C52.1547 76.8436 51.3316 77.5096 50.8629 78.9301C49.6712 82.5227 48.1909 86.0211 46.9906 89.6138C44.8901 95.9016 40.4347 99.0685 34.0875 99.1028C30.3723 99.1256 26.6571 99.1028 22.9419 99.1028H19.5411C19.484 100.818 19.4382 102.304 19.3868 103.784C19.2753 107.025 17.3863 109.009 14.1312 109.323C13.754 109.361 13.371 109.372 12.9881 109.381C9.51583 109.455 9.01572 108.986 9.01 105.519C8.99667 97.6175 8.99667 89.71 9.01 81.7968C9.01 78.7529 9.63587 78.1984 12.7252 78.1812C16.9805 78.1584 19.804 80.5392 19.4125 84.7549C19.3068 85.8668 19.3954 86.9957 19.3954 88.4562H25.5911C28.3518 88.4562 31.1153 88.4048 33.8788 88.4562C35.5478 88.4934 36.5223 87.8103 37.0768 86.2297C38.4542 82.3027 39.9575 78.4185 41.3178 74.4885C41.5827 73.6982 41.6184 72.8489 41.4207 72.0391C40.8177 69.8355 40.0432 67.6319 39.103 64.6766ZM15.7088 38.7705C14.5434 41.1874 13.6178 43.7127 12.9452 46.3103C12.3165 48.7282 13.311 50.849 15.6116 51.9036C18.1008 53.0469 20.6528 54.0672 23.2277 55.0075C30.2437 57.5627 37.2968 60.0207 44.3128 62.573C51.3288 65.1253 58.3162 67.7719 65.3322 70.3357C73.0483 73.1624 80.8045 75.929 88.5292 78.7529C91.307 79.7675 94.1905 79.2988 95.4166 77.1609C97.377 73.7311 98.463 69.9641 99.5633 66.1771C96.7283 66.2943 94.1791 66.583 91.6499 66.4629C87.0231 66.24 82.9421 63.9964 78.6497 62.5559C74.9773 61.324 71.3879 59.8578 67.747 58.5316C63.4831 56.9739 59.2078 55.4563 54.9354 53.9243C51.1116 52.5553 47.2878 51.1977 43.4669 49.82C41.6893 49.1798 39.8546 48.6396 38.1856 47.7793C37.5054 47.4306 36.7938 46.3503 36.8167 45.61C36.8481 44.4668 37.9598 44.2724 39.0001 44.4668C39.7544 44.5764 40.4987 44.7456 41.2263 44.9726C46.7362 46.9733 52.2319 49.0312 57.7332 51.0605C61.3683 52.4009 65.0006 53.7528 68.6444 55.0618C74.34 57.114 80.0757 59.0375 85.7314 61.2068C88.9064 62.4244 92.09 63.0389 95.468 62.7416C98.0686 62.5101 100.378 61.4926 102.693 60.3608C106.582 58.4573 110.546 56.711 114.981 54.6674C114.124 54.0015 113.738 53.5242 113.235 53.3241C110.686 52.3123 108.114 51.3577 105.542 50.4088C101.992 49.0979 98.4401 47.7993 94.885 46.5132C90.6183 44.9669 86.3401 43.4493 82.0762 41.8973C78.5268 40.6054 74.9916 39.265 71.4422 37.9731C67.1783 36.4211 62.9001 34.9035 58.6334 33.3572C54.9954 32.0396 51.3631 30.6934 47.725 29.3758C43.5431 27.8515 39.3583 26.3462 35.1706 24.86C32.5042 23.9054 29.8636 22.8593 27.1687 22.039C24.2622 21.1587 22.0503 22.0733 20.8157 24.7828C19.7533 27.1038 18.9039 29.5164 18.278 31.991C17.6635 34.4404 18.6352 36.2125 20.79 37.5044C21.213 37.7064 21.646 37.8867 22.0874 38.0445C23.442 38.6733 24.0879 39.6565 23.6535 40.6569C23.0991 41.9716 21.876 41.7372 20.9672 41.3771C19.3068 40.7369 17.7693 39.8194 15.7088 38.7705ZM47.7165 76.8637L45.0473 75.3917C44.5957 76.4864 44.2585 77.2466 43.967 78.0241C42.7496 81.3023 41.4864 84.5634 40.3518 87.8732C39.323 90.8742 37.2854 92.2775 34.1503 92.2575C30.2494 92.2347 26.3485 92.2575 22.4332 92.2575C21.5073 92.2575 20.5842 92.3519 19.5754 92.409V95.1928C25.3254 95.1928 30.921 95.3557 36.4995 95.1214C39.1773 95.0071 41.2721 93.3493 42.4323 90.8342C43.2583 89.0336 44.0099 87.1958 44.7043 85.3409C45.7217 82.6056 46.6591 79.8418 47.7136 76.8637H47.7165ZM12.548 82.074C12.548 89.9967 12.4908 97.7109 12.588 105.436C15.3315 105.313 15.8202 104.996 15.8402 102.998C15.8974 96.9239 15.8974 90.8494 15.8402 84.775C15.8259 82.7114 15.5516 82.5485 12.548 82.074ZM43.5012 66.2371C44.2271 70.3843 45.8789 72.4621 48.8339 72.828C50.2628 73.0052 51.8175 72.565 53.2607 72.1935C53.8494 72.042 54.2895 71.336 55.2154 70.4786L43.5012 66.2371ZM107.834 64.0021C104.73 63.4047 104.719 63.4019 103.936 65.5112C102.853 68.4379 101.775 71.3703 100.724 74.3113C100.604 74.6429 100.658 75.0345 100.621 75.5432L103.256 76.5778L107.834 64.0021Z" fill="#A4A0C6"/>
<path d="M33.7564 44.0354C33.1848 44.4355 32.5847 45.1787 32.0417 45.1415C30.467 45.0472 28.8066 44.9186 27.6006 43.6438C26.5404 42.5234 26.9033 41.2544 28.3808 40.8429C29.4611 40.5399 32.6333 41.7346 33.202 42.6892C33.4158 43.1255 33.601 43.5751 33.7564 44.0354Z" fill="#A4A0C6"/>
</svg>
