<svg width="110" height="80" viewBox="0 0 110 80" fill="none" xmlns="http://www.w3.org/2000/svg">
<path d="M78.6452 72.4807L80.0913 75.9619C81.4316 75.9619 82.7519 75.9619 84.0694 75.9619C84.7352 75.9619 85.5297 75.7903 86.0327 76.0905C86.6728 76.4734 87.3158 77.1966 87.4616 77.8882C87.5416 78.2226 86.6042 78.98 85.9869 79.2401C85.3697 79.5002 84.6752 79.3316 84.0093 79.3316H26.0554C25.4838 79.3316 24.9122 79.3173 24.3407 79.3116C23.3347 79.3116 22.6488 78.8171 22.626 77.8082C22.5974 76.705 23.249 76.0305 24.3835 75.9905C25.7153 75.9447 27.0499 75.9704 28.3845 75.9475C28.856 75.9475 29.3247 75.8904 29.8877 75.8561C30.365 74.8614 30.8308 73.8869 31.5052 72.4749H27.9615C20.7284 72.4749 13.4952 72.4749 6.25914 72.4749C1.91524 72.4749 0.180542 70.7972 0.174826 66.4729C0.150058 46.4926 0.150058 26.5105 0.174826 6.52648C0.174826 2.19356 1.88952 0.524414 6.26201 0.524414C38.8165 0.524414 71.3701 0.524414 103.923 0.524414C108.098 0.524414 109.973 2.41079 109.978 6.61224C109.992 26.4991 109.992 46.386 109.978 66.2728C109.978 67.296 109.944 68.4193 109.538 69.3224C108.558 71.486 106.858 72.5464 104.334 72.5121C96.9039 72.4178 89.4735 72.4807 82.0603 72.4835L78.6452 72.4807ZM74.4242 72.4807H47.0576C46.2945 72.4807 45.4715 72.6293 44.7913 72.3863C44.1854 72.172 43.2652 71.4375 43.3224 71.0602C43.4029 70.6801 43.5639 70.3216 43.7946 70.009C44.0253 69.6965 44.3204 69.437 44.6598 69.2481C45.3772 68.9194 46.3374 69.1023 47.1947 69.1023H84.0608C90.6338 69.1023 97.2068 69.1281 103.78 69.1023C106.18 69.0881 106.509 68.6021 106.269 65.6383C104.891 65.6383 103.48 65.624 102.071 65.6383C100.882 65.6554 99.8989 65.301 99.9474 63.952C99.9932 62.6715 100.925 62.2371 102.134 62.2543C103.525 62.28 104.92 62.2543 106.581 62.2543V58.7931C106.581 41.9415 106.581 25.091 106.581 8.24136C106.581 3.97132 106.503 3.89988 102.294 3.89702H7.68806C7.11649 3.89702 6.54493 3.8713 5.97336 3.89702C4.1615 4.01135 3.81856 4.32284 3.64138 6.07202C3.60505 6.6429 3.59742 7.21525 3.61851 7.78689C3.61851 24.9242 3.61851 42.0607 3.61851 59.1961C3.61851 60.1193 3.70138 61.0424 3.75854 62.24H7.28511C35.4729 62.24 63.6606 62.24 91.8484 62.24C92.8 62.24 93.8488 62.0656 94.6719 62.3943C95.3035 62.643 95.9265 63.5204 96.0437 64.2063C96.1037 64.5665 95.1349 65.3496 94.5147 65.5182C93.6231 65.7555 92.6286 65.6154 91.6769 65.6154H3.78713C3.75284 68.8365 3.89287 69.008 6.44491 69.0852C7.11079 69.1052 7.77666 69.0852 8.44539 69.0852C17.5905 69.0852 26.7355 69.0852 35.8806 69.0852C36.6379 69.0852 37.4981 68.9451 38.1297 69.2481C38.7013 69.5339 39.4129 70.3228 39.4014 70.8801C39.39 71.4374 38.6041 72.1205 38.0011 72.3549C37.2495 72.6407 36.3407 72.5378 35.3862 72.6093C35.0004 73.6725 34.6374 74.6585 34.2145 75.8132H76.136L74.4242 72.4807Z" fill="#A4A0C6"/>
<path d="M80.9627 12.5625C80.434 13.2113 80.0167 13.823 79.5052 14.3432C75.7233 18.1864 71.9319 22.0201 68.131 25.8443C59.1765 34.8169 50.2162 43.781 41.2502 52.7364C40.5815 53.4052 39.9185 54.0884 39.1983 54.7C38.4781 55.3116 37.6665 55.5974 36.8863 54.88C36.029 54.0855 36.1462 53.0851 36.8492 52.3077C38.5096 50.4957 40.2614 48.7665 41.9933 47.0259C53.3675 35.6563 64.7464 24.2914 76.1301 12.9313C76.7331 12.3282 77.2961 11.6308 78.0191 11.2164C78.5945 10.9541 79.2492 10.9254 79.8453 11.1363C80.2825 11.3135 80.5226 11.9709 80.9627 12.5625Z" fill="#A4A0C6"/>
<path d="M40.1048 41.4899C38.593 41.6214 37.73 40.5582 38.1501 39.4235C38.3673 38.8519 38.8617 38.326 39.3161 37.8687C46.735 30.4376 54.1653 23.0122 61.6071 15.5925C61.9415 15.2581 62.2244 14.8379 62.6131 14.5921C63.4447 14.0662 64.3821 14.1062 64.8365 14.9894C65.1223 15.5239 65.1223 16.5185 64.7822 16.9901C64.022 18.0562 62.9932 18.9336 62.0558 19.8682C55.2256 26.6782 48.3906 33.4862 41.5509 40.2924C41.0222 40.7926 40.422 41.2241 40.1048 41.4899Z" fill="#A4A0C6"/>
</svg>
