<svg width="128" height="128" viewBox="0 0 128 128" fill="none" xmlns="http://www.w3.org/2000/svg">
<path d="M101.153 103.452H26.9548C26.7633 104.721 26.5947 105.913 26.4004 107.101C25.5802 112.097 22.0765 114.716 16.6466 114.395C12.5256 114.155 9.07333 110.394 9.05047 105.91C8.99903 96.6807 8.95904 87.449 9.07621 78.223C9.13623 73.3413 10.9881 68.9712 14.006 65.1985C15.2463 63.6494 15.612 62.1117 15.6035 60.2367C15.5606 50.0561 15.6206 39.8754 15.5663 29.6948C15.5463 25.7877 16.2779 22.1322 18.7843 19.0568C21.6564 15.5328 25.2487 13.2663 29.9898 13.2634C46.3595 13.2634 62.73 13.2501 79.1016 13.2234C85.1945 13.2234 91.2903 13.4035 97.3917 13.2234C104.251 13.0176 111.881 19.6856 111.924 27.857C111.964 36.1456 111.941 44.4141 111.947 52.6913C111.947 55.2636 112.05 57.8359 111.91 60.4082C111.821 62.0602 112.367 63.3264 113.387 64.5239C117.102 68.8826 118.903 73.9129 118.868 79.652C118.82 88.3122 118.834 96.9694 118.868 105.63C118.868 108.945 117.568 111.497 114.759 113.244C109.663 116.41 102.347 113.569 101.524 107.124C101.364 105.995 101.281 104.869 101.153 103.452ZM13.6373 98.6872H114.342V90.3986H94.8512C94.1824 90.3986 93.5166 90.3986 92.8507 90.35C91.5675 90.2471 91.0045 89.3239 90.9274 88.235C90.8416 87.0603 91.5703 86.2514 92.7506 86.0399C93.5081 85.9368 94.2729 85.8986 95.0369 85.9256C100.467 85.9256 105.897 85.9256 111.327 85.9256C112.324 85.9256 113.327 85.8027 114.499 85.7227C114.499 83.1504 114.699 80.8467 114.453 78.6031C114.036 74.8075 112.944 71.2063 110.509 68.1223C106.551 63.1092 101.433 60.5226 95.0227 60.5311C88.261 60.5311 81.4975 60.5311 74.732 60.5311C60.923 60.5311 47.114 60.474 33.2935 60.5883C30.7729 60.6083 28.1036 60.9341 25.7774 61.8259C20.4075 63.8894 16.6523 67.7822 14.6632 73.2584C13.1686 77.3627 13.28 81.547 13.7459 85.9428H17.4268C34.6652 85.9428 51.9075 85.9428 69.1536 85.9428C70.1969 85.9061 71.2411 85.9808 72.2686 86.1657C73.3202 86.4001 73.8175 87.2775 73.7318 88.3379C73.6461 89.3982 73.1374 90.1871 72.0171 90.3386C71.1624 90.4204 70.3032 90.4462 69.4451 90.4157C51.8256 90.4157 34.2023 90.4157 16.5752 90.4157C15.5721 90.4157 14.5747 90.4815 13.6173 90.5129L13.6373 98.6872ZM107.14 58.7591C107.308 58.1475 107.489 57.7931 107.489 57.4386C107.503 47.8268 107.62 38.212 107.44 28.603C107.366 24.5216 105.634 21.0747 101.819 18.9882C99.6523 17.8021 97.3203 17.6478 94.9312 17.6506C75.1283 17.6506 55.3264 17.6506 35.5254 17.6506C33.905 17.6506 32.2589 17.4849 30.6671 17.7249C28.9238 17.9879 27.0691 18.328 25.5573 19.1683C21.9764 21.169 20.1932 24.3358 20.216 28.5372C20.2675 38.0548 20.216 47.5724 20.236 57.09C20.2757 57.7749 20.353 58.4571 20.4675 59.1335L24.4685 57.35C24.4685 54.7777 24.3656 52.134 24.4885 49.4845C24.7428 44.054 29.8498 38.9465 34.9624 38.978C41.9098 39.018 48.86 38.9151 55.8074 39.038C57.2363 39.0637 58.7653 39.6354 60.0942 40.287C61.4945 40.9787 62.6977 42.0648 64.0637 43.0337C64.6525 42.5364 65.1383 42.1019 65.6498 41.6961C67.6961 40.0755 69.8651 38.898 72.6315 38.9351C79.3874 39.0266 86.1491 38.9351 92.9078 39.0323C94.3235 39.0663 95.7141 39.4128 96.9802 40.0469C101.23 42.2134 103.405 45.7632 103.396 50.5791C103.396 52.8456 103.396 55.115 103.396 57.3958L107.14 58.7591ZM66.6558 55.9438H99.0407C99.0407 53.8803 99.2579 51.9682 98.9979 50.1218C98.4606 46.3405 96.3944 43.5853 92.4506 43.4595C85.8976 43.2509 79.3303 43.288 72.7744 43.4595C69.265 43.5453 67.1187 45.8089 66.7444 48.1612C66.35 50.622 66.6558 53.2029 66.6558 55.9438ZM61.606 55.981C61.606 53.7659 61.6946 51.8796 61.5889 50.0047C61.3745 46.2891 58.8054 43.5396 55.0902 43.431C48.6229 43.268 42.1499 43.288 35.6797 43.431C34.0416 43.4549 32.4683 44.0744 31.2534 45.1736C30.0386 46.2729 29.2654 47.7767 29.0782 49.4044C28.8238 51.5337 29.0295 53.7174 29.0295 55.9781L61.606 55.981ZM21.8335 103.497H13.6144C13.3286 105.815 13.3572 107.845 15.3891 109.234C16.9638 110.311 18.6471 110.314 20.2046 109.262C22.2222 107.893 22.3251 105.892 21.8335 103.497ZM106 103.472C106.025 105.855 105.551 108.005 107.849 109.342C109.52 110.317 111.189 110.277 112.65 109.159C114.479 107.765 114.867 105.801 114.273 103.472H106Z" fill="#A4A0C6"/>
<path d="M84.4684 88.1517C84.4768 88.4328 84.4295 88.7128 84.3294 88.9756C84.2293 89.2384 84.0781 89.4788 83.8848 89.683C83.6915 89.8873 83.4598 90.0513 83.2029 90.1657C82.946 90.2801 82.669 90.3426 82.3879 90.3496C81.1504 90.3725 80.3074 89.5179 80.276 88.2174C80.2622 87.9364 80.305 87.6554 80.402 87.3913C80.499 87.1271 80.6481 86.8852 80.8406 86.6799C81.033 86.4746 81.2647 86.31 81.522 86.1961C81.7793 86.0822 82.0569 86.0213 82.3382 86.0169C82.6195 86.0124 82.8989 86.0647 83.1596 86.1705C83.4203 86.2762 83.6571 86.4334 83.8559 86.6326C84.0546 86.8318 84.2113 87.0689 84.3165 87.3299C84.4217 87.5909 84.4734 87.8703 84.4684 88.1517Z" fill="#A4A0C6"/>
</svg>
