<svg width="111" height="110" viewBox="0 0 111 110" fill="none" xmlns="http://www.w3.org/2000/svg">
<path d="M24.8258 6.35773C24.8258 4.73717 24.7687 3.60534 24.8258 2.48495C24.9344 0.724345 25.5317 0.0555288 27.275 0.0412382C33.465 -0.0130663 39.658 0.0241312 45.8509 0.0126987C47.1826 0.0126987 48.0571 0.535734 48.2029 1.93907C48.3343 3.21094 47.4827 4.20557 45.9909 4.37135C44.9447 4.44489 43.8953 4.46109 42.8473 4.41991C38.472 4.41991 34.0938 4.41991 29.3669 4.41991C29.3326 6.79216 29.2869 9.03579 29.2697 11.2794C29.2555 13.4573 29.2697 15.6352 29.2697 17.7331C31.556 18.4876 78.8246 18.6306 81.8539 17.9675C82.4569 15.9039 82.5426 7.57814 81.9253 4.41991H79.2132C75.2123 4.41991 71.2113 4.41991 67.2103 4.41991C66.5425 4.45557 65.8727 4.42877 65.2098 4.33988C64.9268 4.30007 64.6545 4.20441 64.4087 4.05846C64.1629 3.91251 63.9486 3.71918 63.7782 3.48969C63.6077 3.26021 63.4846 2.99919 63.4159 2.72171C63.3472 2.44423 63.3343 2.15585 63.378 1.87334C63.5466 0.684362 64.1667 0.0098434 65.4671 0.0155597C71.7543 0.0327084 78.0415 -0.00735004 84.3288 0.0412382C85.9549 0.0555288 86.4521 0.612878 86.5893 2.34205C86.6808 3.46243 86.6064 4.59709 86.6064 6.04045C87.8382 6.16049 88.8327 6.32628 89.8301 6.34343C93.9254 6.37487 98.0206 6.34345 102.119 6.37204C103.258 6.37414 104.396 6.47836 105.517 6.68353C108.72 7.29802 110.572 9.31016 110.592 12.557C110.655 23.6084 110.647 34.6523 110.569 45.6885C110.538 49.3354 108.606 52.2021 105.805 54.3629C104.611 55.286 104.054 56.2264 104.056 57.6754C104.077 72.9188 104.087 88.1516 104.085 103.374C104.125 103.949 104.198 104.522 104.302 105.089C105.614 105.169 106.9 105.249 108.183 105.323C109.466 105.398 110.366 105.986 110.552 107.324C110.724 108.584 109.981 109.496 108.675 109.656C108.104 109.704 107.532 109.717 106.96 109.693H4.66381C4.18655 109.693 3.71215 109.693 3.2349 109.693C1.91172 109.693 1.03724 109.122 0.857195 107.767C0.694298 106.549 1.60309 105.506 3.10631 105.363C4.41234 105.243 5.73836 105.34 7.27301 105.34C7.35589 104.197 7.46736 103.38 7.46736 102.554C7.47879 87.7963 7.48736 73.0388 7.49307 58.2813C7.49307 56.5665 7.15299 55.3746 5.59833 54.2028C2.34326 51.7505 0.740018 48.3122 0.780027 44.0993C0.857189 34.0073 0.78002 23.9153 0.808599 13.8232C0.808599 8.96438 3.152 6.52639 8.1132 6.39206C12.4914 6.28059 16.8725 6.36345 21.2592 6.36059L24.8258 6.35773ZM16.0608 105.163V101.782C16.0608 90.9212 16.0608 80.0698 16.0608 69.228C16.0608 65.9097 16.6324 65.3495 19.8618 65.3324C25.3869 65.3019 30.9121 65.3019 36.4372 65.3324C39.7551 65.3324 40.3381 65.9668 40.341 69.4166C40.3524 80.2775 40.3524 91.1289 40.341 101.971V104.952C40.9897 105.12 41.2641 105.255 41.5356 105.255C60.1972 105.276 78.8598 105.287 97.5234 105.289C97.9954 105.265 98.4652 105.209 98.9294 105.12C99.0203 105.099 99.1034 105.052 99.1695 104.986C99.2398 104.911 99.3039 104.831 99.3609 104.746V57.4783C97.0575 56.9667 94.8141 56.8009 92.868 55.9491C90.8675 55.0717 89.1528 53.5283 87.3381 52.285C81.3052 58.167 73.7833 59.1074 66.273 52.0392C63.4151 55.146 59.92 57.0638 55.6075 57.0209C51.2951 56.9781 47.8685 55.0202 45.0336 51.782C42.1757 55.2774 38.6949 56.9923 34.4596 57.0181C30.2243 57.0438 26.8892 55.0859 23.9399 51.8505C20.8763 55.9119 16.6696 56.8952 12.2628 57.2668V105.149L16.0608 105.163ZM86.635 10.9222C86.635 13.9832 86.6522 16.5298 86.635 19.0764C86.6093 22.2203 86.112 22.7348 83.0513 22.9005C82.2911 22.9434 81.5281 22.9177 80.765 22.9177C64.1096 22.9177 47.4532 22.9177 30.7958 22.9177C30.1299 22.9177 29.4641 22.9349 28.7953 22.9177C25.3917 22.7977 24.8315 22.2347 24.8201 18.8907C24.8201 16.3555 24.8201 13.8203 24.8201 11.0222C18.7672 11.0222 13.0801 10.9764 7.38733 11.0536C5.95842 11.0736 5.25252 12.0654 5.26967 13.5631C5.30682 16.4212 5.26967 19.2793 5.26967 22.1374V26.4961C8.97056 27.2335 103.891 27.0677 106.323 26.296C106.323 22.349 106.351 18.2933 106.323 14.2147C106.297 11.6424 105.7 11.0164 103.088 10.9679C99.1866 10.8964 95.2828 10.9422 91.3705 10.9393L86.635 10.9222ZM47.2913 31.595C47.2913 36.391 46.8569 40.8782 47.4056 45.2426C48.0343 50.2472 51.6923 52.6737 56.3849 52.4308C60.8345 52.2021 64.061 48.7781 64.2268 44.2822C64.2954 42.4816 64.2468 40.6753 64.2496 38.8718V31.5379C58.4368 31.4607 52.9955 31.3921 47.2913 31.5807V31.595ZM26.4462 31.6522C26.4462 36.5281 26.3147 40.8982 26.4862 45.2569C26.632 48.9925 29.5956 51.8592 33.4022 52.4022C36.5458 52.8424 40.6954 51.4533 42.0671 47.4634C43.819 42.3673 42.4872 37.1512 42.9473 31.6207C37.3002 31.4464 32.0447 31.3463 26.4462 31.6379V31.6522ZM106.26 31.4892C103.216 31.4892 100.57 31.4007 97.932 31.5121C95.2942 31.6236 92.5022 30.9862 89.8044 32.0838C89.8044 33.3871 89.8044 34.4246 89.8044 35.4649C89.8244 38.7003 89.8044 41.9386 89.9044 45.1826C89.95 46.1231 90.1935 47.0434 90.6188 47.8835C92.3335 51.2875 95.6115 52.9538 99.2952 52.3707C103.439 51.7105 105.794 49.0153 106.154 45.1282C106.577 40.7753 106.26 36.3852 106.26 31.4749V31.4892ZM35.8456 90.8726V70.2941H20.8191V90.8726H35.8456ZM68.765 31.6779C68.765 36.431 68.5764 40.801 68.8221 45.1482C69.0279 48.8352 72.0372 52.488 77.1099 52.4679C81.3652 52.4508 85.1404 49.0667 85.0204 44.8367C84.9118 40.9468 85.0204 37.0512 85.0204 33.1613C85.0204 32.7183 84.8289 32.2781 84.6888 31.6779H68.765ZM5.27825 31.7065C5.27825 35.6678 5.27825 39.3605 5.27825 43.0532C5.24598 43.8162 5.27178 44.5806 5.35542 45.3397C5.94985 49.1239 8.8334 52.5937 13.8517 52.485C18.1585 52.3822 21.7194 48.8753 21.5679 44.9682C21.465 42.1244 21.5679 39.2719 21.5936 36.4224C21.5936 34.9304 21.5936 33.4356 21.5936 31.7293L5.27825 31.7065ZM20.8306 95.9944V105.14H35.837V95.9944H20.8306Z" fill="#A4A0C6"/>
<path d="M55.7503 4.3368C55.1855 4.29231 54.6569 4.04176 54.2648 3.63281C53.8728 3.22386 53.6447 2.68505 53.624 2.11889C53.6412 0.844169 54.4814 0.0210751 55.756 0.0239332C56.3186 0.0288744 56.8574 0.251664 57.2592 0.64552C57.661 1.03938 57.8945 1.57362 57.9108 2.13606C57.9222 3.18785 56.7734 4.35681 55.7503 4.3368Z" fill="#A4A0C6"/>
<path d="M71.1537 65.3095C77.9153 65.3095 84.6769 65.2952 91.4443 65.3095C94.7965 65.3095 95.4453 65.9411 95.4796 69.3109C95.5234 76.742 95.5234 84.1684 95.4796 91.59C95.4624 95.1655 94.8165 95.8028 91.3386 95.8057C77.9086 95.8209 64.4768 95.8209 51.0431 95.8057C50.3741 95.8465 49.7026 95.8081 49.0426 95.6914C47.8423 95.4056 46.9936 94.7082 46.9593 93.3392C46.9593 92.8619 46.905 92.3874 46.905 91.9101C46.905 84.2932 46.8793 76.6762 46.905 69.0593C46.905 65.8554 47.5108 65.3095 50.8402 65.298C57.6304 65.2923 64.3921 65.3095 71.1537 65.3095ZM90.8299 70.3169H51.7718C51.2203 74.4269 51.3889 88.9205 51.9633 90.8068H59.9881V87.4915C59.3165 87.3857 58.7593 87.3314 58.2163 87.2056C56.5016 86.8112 55.5871 85.8509 55.7243 84.6104C55.8557 83.4157 56.9702 82.5697 58.6678 82.4611C59.6166 82.4011 60.574 82.444 61.5256 82.444C62.9545 82.444 64.3835 82.4125 65.8124 82.444C67.8414 82.504 68.876 83.2128 69.0332 84.5647C69.1989 85.9651 68.3644 86.794 66.3382 87.2313L64.8522 87.5343V90.8326C69.1102 91.0926 73.3801 91.0926 77.6381 90.8326V87.5572C76.8036 87.38 76.0663 87.2714 75.3518 87.057C74.2087 86.7255 73.6371 85.9137 73.6771 84.7162C73.7171 83.5186 74.4488 82.6326 75.589 82.5926C78.6269 82.484 81.6733 82.4754 84.7055 82.6298C84.9737 82.6343 85.2377 82.6966 85.4795 82.8125C85.7214 82.9285 85.9353 83.0952 86.1068 83.3015C86.2783 83.5077 86.4032 83.7485 86.4731 84.0075C86.543 84.2664 86.5561 84.5374 86.5117 84.8019C86.3573 85.5936 85.6543 86.4453 84.9742 86.9226C84.3397 87.3599 83.3852 87.3285 82.5964 87.4942V90.8097H90.8327L90.8299 70.3169Z" fill="#A4A0C6"/>
</svg>
