<svg width="128" height="128" viewBox="0 0 128 128" fill="none" xmlns="http://www.w3.org/2000/svg">
<path d="M15.9583 98.3722C15.9583 103.282 15.8841 107.65 15.9927 112.011C16.0412 113.949 16.91 114.644 18.9391 114.678C22.2713 114.732 25.6036 114.698 28.9415 114.701C39.3231 114.701 49.7065 114.701 60.0919 114.701C60.9492 114.701 61.8951 114.555 62.6267 114.869C63.1839 115.109 63.7927 115.99 63.7698 116.564C63.7527 117.067 62.9639 117.679 62.3809 117.993C61.9265 118.23 61.2635 118.073 60.6919 118.073C46.8829 118.073 33.071 117.942 19.2677 118.162C15.5297 118.222 12.2175 115.555 12.4375 111.285C12.649 107.21 12.4832 103.111 12.4832 98.9038C11.8859 98.6838 11.3687 98.5123 10.8657 98.3093C9.69401 97.8378 9.10525 97.0746 9.17098 95.6999C9.27672 93.4134 9.17094 91.1269 9.20809 88.8404C9.24525 86.8797 9.49396 86.4624 11.4316 86.268C12.9719 86.1108 13.5692 85.3392 13.9264 84.0244C15.0353 79.9373 18.3704 78.5282 21.9769 77.8166C25.9522 77.0334 26.4265 76.7276 26.4094 72.8006C26.4094 71.9431 26.4094 71.1057 26.4094 70.6284C23.803 69.1536 21.3539 68.0732 19.2648 66.5098C16.6395 64.5703 14.7623 61.7856 13.9492 58.6242C13.8777 58.3384 13.7863 58.0783 13.7349 57.7982C13.0947 54.237 14.4093 52.9394 17.9845 53.7969C20.3999 54.3317 22.6317 55.494 24.4547 57.1666C24.9119 57.5896 25.4434 57.9326 26.1465 58.4699C26.5923 56.1834 26.3779 54.4857 25.2062 52.6079C21.7511 47.0745 22.2942 40.0321 26.1322 35.259C27.4868 33.5727 29.0529 33.4898 30.3732 35.139C31.1906 36.1593 32.0336 37.2969 32.3966 38.5202C33.9112 43.5962 34.1112 48.5951 30.9333 53.2567C29.5759 55.2574 29.6216 55.446 30.3075 58.487C30.8791 58.0526 31.3735 57.6953 31.8422 57.3009C34.2113 55.3002 36.8262 53.8169 39.9898 53.6339C42.3104 53.4996 42.9248 54.1027 42.8476 56.4149C42.6904 60.825 40.3327 64.1147 37.0005 66.6384C34.9257 68.2104 32.4509 69.2536 29.9731 70.6398C30.0617 72.1889 29.3129 74.0867 30.6476 76.0417C31.5478 75.5901 32.3823 75.2128 33.1768 74.7612C35.4487 73.4665 37.7494 73.3579 39.8784 74.9041C42.5305 76.8191 45.2197 75.9159 47.5717 74.7384C49.7951 73.6208 51.5526 73.3779 53.6331 74.807C55.2707 75.9331 55.868 75.6358 57.2597 74.3039C58.3402 73.2789 59.5509 72.4006 60.8606 71.6916C61.918 71.12 62.441 70.4855 62.3981 69.265C62.3324 67.373 62.3809 65.4723 62.3809 63.3573C55.5621 62.0683 50.558 58.2127 47.1944 52.3992C45.5968 49.6411 44.4681 46.5344 45.5369 43.0303C48.832 42.0357 51.9441 42.6273 54.742 44.4165C57.314 46.0656 59.686 48.0463 62.238 49.9498V43.7563C61.5407 43.4476 60.7234 43.016 59.8574 42.7159C54.7133 40.9467 51.5698 37.2712 49.9008 32.258C49.4093 30.7661 48.8491 28.6425 50.2752 27.7364C51.4183 27.0133 53.4587 27.182 54.8991 27.6193C56.6595 28.1537 58.2342 29.3341 59.8375 30.3288C60.6148 30.8061 61.2664 31.472 62.0866 32.1465C62.7154 30.2087 62.1952 28.7797 61.1721 27.2877C57.6369 22.1031 58.3142 13.8545 62.0951 9.71881C63.7041 7.94962 64.7158 7.82101 66.1676 9.79026C67.265 11.2765 68.2566 12.9999 68.7167 14.7691C69.8741 19.2221 69.7085 23.6293 66.9221 27.5792C65.9961 28.8883 65.4931 30.2402 66.1332 32.1523C67.0334 31.4492 67.848 30.7861 68.6853 30.1516C71.0002 28.4081 73.4465 27.0305 76.5015 27.2506C78.442 27.3877 78.8478 27.6793 78.7878 29.68C78.7474 30.8999 78.5 32.1042 78.0562 33.2412C76.1643 37.9571 73.0177 41.4069 67.9679 42.8674C67.2621 43.0732 66.6334 43.5533 65.9361 43.9249V50.0813C66.6448 49.6183 67.1964 49.3782 67.588 48.9781C69.574 46.9523 71.8688 45.2545 74.3868 43.9477C76.9988 42.5701 79.6309 42.5358 82.5973 42.7302C83.5461 45.8055 82.9745 48.5808 81.6285 51.276C78.5849 57.3724 73.8322 61.3823 67.1763 63.06C66.8134 63.1515 66.4563 63.2716 65.8675 63.4488C65.8675 65.5123 65.7503 67.6016 65.9303 69.6652C65.9904 70.3483 66.6848 71.3115 67.3107 71.5458C68.8245 72.1181 70.1317 73.1317 71.063 74.4554C71.9746 75.6844 73.1978 75.8273 74.3067 74.9985C76.6329 73.2607 78.5677 73.7094 81.0997 74.9527C83.1488 75.9559 85.8009 76.9134 88.3187 74.9527C90.4592 73.2807 92.9054 73.4208 95.2517 74.8956C96.0062 75.37 96.8893 75.6444 98.1096 76.1874V70.2311C96.7835 69.6595 95.1545 69.1507 93.717 68.3133C89.3503 65.7753 86.1552 62.2884 85.5894 57.0237C85.2607 53.9998 86.1181 53.2309 89.1903 53.6997C91.9681 54.1227 94.3601 55.4289 96.4491 57.3038C96.9121 57.7211 97.4408 58.064 98.2039 58.6414C98.4354 56.3149 98.4182 54.6257 97.1293 52.7536C93.677 47.7462 94.2173 39.6634 97.8153 35.3877C99.4071 33.4927 100.804 33.5041 102.428 35.4077C106.071 39.6777 105.954 47.8862 103.734 51.5932C102.634 53.4282 101.162 55.2088 101.865 57.6239C101.974 57.8557 102.105 58.0768 102.256 58.2841C102.71 58.035 103.142 57.7482 103.548 57.4267C105.697 55.4546 108.166 54.0884 111.061 53.6825C114.271 53.2338 115.514 54.6457 114.648 57.8726C113.719 61.3366 111.961 64.4205 109.012 66.527C106.883 68.0503 104.46 69.165 101.811 70.6627C101.811 71.4744 101.791 72.6977 101.811 73.9209C101.856 76.2074 102.939 77.3507 105.146 77.7508C106.715 78.0291 108.264 78.4188 109.778 78.917C112.21 79.7258 113.582 81.6579 114.445 83.9301C114.954 85.2677 115.442 86.3166 117.163 86.2538C118.432 86.208 119.012 87.0855 119.018 88.3088C119.018 90.8811 119.08 93.4534 119.003 96.0257C118.955 97.6606 118.855 97.672 115.965 98.8667C115.925 99.8413 115.848 100.953 115.84 102.065C115.814 105.303 115.777 108.539 115.811 111.783C115.851 115.684 112.936 118.202 109.098 118.142C96.5235 117.95 83.9491 118.073 71.3746 118.068C70.5344 118.068 69.6941 117.99 68.9054 117.953C68.0766 115.261 68.3995 114.726 70.9744 114.718C80.691 114.689 90.4076 114.718 100.124 114.718C103.268 114.718 106.412 114.758 109.555 114.686C111.418 114.644 112.127 114.115 112.17 112.366C112.287 107.83 112.207 103.285 112.207 98.3894C109.675 98.3894 107.42 98.3894 105.163 98.3894C104.305 98.3894 103.382 98.4894 102.625 98.1979C102.025 97.9664 101.176 97.1232 101.253 96.6974C101.37 96.0371 102.082 95.2912 102.734 94.9825C103.385 94.6738 104.225 94.8567 104.986 94.8539C108.392 94.8539 111.801 94.8539 115.394 94.8539V89.7292H41.7017C40.75 89.7292 39.727 89.895 38.8668 89.6035C38.0808 89.3377 36.9662 88.6203 36.8862 87.9886C36.7319 86.8197 37.7865 86.248 38.9753 86.2223C39.8327 86.2052 40.69 86.208 41.5474 86.208H110.947C110.701 82.8783 108.061 80.6976 105.18 81.5836C103.602 82.0695 102.776 81.8237 101.808 80.5918C100.479 78.8969 99.8814 78.7626 97.9181 79.6315C96.5549 80.2346 95.769 79.9544 94.7259 78.8941C92.4397 76.5761 90.725 76.7876 88.5044 79.2999C87.2441 80.729 86.6896 80.9176 85.1321 80.003C84.0261 79.3514 83.1059 78.7855 81.7027 79.3314C81.1311 79.5515 80.1195 79.0456 79.505 78.5968C78.8906 78.1481 78.6105 77.3964 78.279 76.922C77.5017 77.2078 77.156 77.2249 77.0074 77.4079C75.647 79.0484 74.2181 79.783 71.8633 79.1885C70.3543 78.8026 69.4341 78.4482 68.6082 77.062C66.4734 73.4779 61.9865 73.3979 59.7746 76.8934C58.7457 78.5225 57.5054 78.9398 55.6907 79.2799C53.7188 79.6486 52.6329 79.0999 51.5926 77.6851C51.3869 77.3993 50.9868 77.2707 50.561 76.9906C50.0294 77.4336 49.4521 77.7737 49.0634 78.2624C48.1889 79.3542 47.2916 79.763 45.8456 79.2428C45.1997 79.0113 44.208 79.3943 43.4936 79.7458C41.2216 80.8605 41.2073 80.8891 39.5354 79.0256C37.675 76.9363 35.9145 76.6819 33.9055 78.574C32.5708 79.8316 31.4706 80.4432 29.713 79.4C28.2841 78.5425 27.0924 79.4886 26.318 80.6147C25.4806 81.8265 24.7033 82.1009 23.2258 81.6636C20.188 80.7662 17.7559 82.6239 17.2672 86.208H22.6543C25.2263 86.208 27.7984 86.208 30.3704 86.2309C31.5136 86.2309 32.5166 86.5796 32.4937 87.9715C32.4737 89.1919 31.4449 89.4606 30.5218 89.6406C29.7641 89.741 28.9987 89.7707 28.2356 89.7292C24.1403 89.7292 20.045 89.7292 15.9469 89.7292C14.9266 89.7292 13.9035 89.8264 12.7518 89.8864V94.6452C13.9092 94.7024 15.0095 94.8053 16.1097 94.8053C41.5368 94.8053 66.964 94.8053 92.3911 94.8053C93.3399 94.8053 94.3515 94.6709 95.2231 94.9482C95.7947 95.1311 96.5263 95.9228 96.552 96.4716C96.5777 97.0203 95.9119 97.9178 95.3632 98.0978C94.4058 98.4122 93.3055 98.3465 92.2652 98.3465C68.1699 98.3579 44.0765 98.3579 19.985 98.3465L15.9583 98.3722ZM79.3393 46.1771C73.2807 46.4086 65.6218 54.7258 66.3505 59.5331C73.0864 58.0555 78.8906 52.1849 79.3393 46.1771ZM48.9349 46.3543C48.772 51.416 56.471 59.5017 62.0809 59.3388C61.4065 53.0509 54.2047 45.937 48.9349 46.3543ZM26.1522 66.2812C24.8776 61.3252 20.8624 57.6125 17.2558 57.804C18.8476 61.9111 21.5054 64.8235 26.1522 66.2812ZM99.6871 38.8431C97.7809 42.7245 97.758 46.5229 99.7414 50.4157C102.642 47.8662 102.591 40.8553 99.6871 38.8288V38.8431ZM75.0525 30.7632C70.0142 32.5238 67.0507 35.622 66.6706 39.3719C70.3915 38.8774 73.7836 35.482 75.0525 30.7489V30.7632ZM63.8728 24.9983C66.702 22.1402 66.5363 15.012 63.7785 13.5115C61.8094 17.8502 61.8094 20.4396 63.8728 24.9841V24.9983ZM28.1213 50.6443C30.5933 47.1803 30.4704 41.1153 28.0013 38.8174C25.8465 42.6959 25.9093 46.4658 28.1213 50.63V50.6443ZM110.998 57.4352C106.049 58.71 102.665 62.2941 102.588 66.1697C106.803 64.672 109.592 61.9854 111.001 57.421L110.998 57.4352ZM53.2959 30.5888C54.0246 35.2619 58.2714 39.3576 62.0638 39.2461C60.6263 34.9589 57.6084 32.3723 53.2988 30.5746L53.2959 30.5888ZM89.1188 57.5667C90.5992 62.2969 94.24 65.6667 97.5866 65.5695C96.9835 61.7968 93.3998 58.3184 89.1216 57.5524L89.1188 57.5667ZM39.3353 57.5153C34.6056 58.3727 30.6504 62.497 30.9991 66.0211C35.2315 64.6835 37.6664 61.7225 39.3383 57.501L39.3353 57.5153Z" fill="#A4A0C6"/>
</svg>
