<svg width="105" height="111" viewBox="0 0 105 111" fill="none" xmlns="http://www.w3.org/2000/svg">
<path d="M83.6379 82.1095H92.9973C92.4258 76.7162 91.8885 71.5344 91.2998 66.3497C90.8997 62.86 90.4081 59.3759 89.9737 55.889C89.1164 48.9123 88.2105 41.9385 87.4017 34.9561C86.6987 28.914 86.0299 22.8691 85.4698 16.8127C84.9725 11.4594 85.0497 11.4537 79.6227 11.4537H58.1889C57.4288 11.4537 56.6657 11.4251 55.9027 11.3965C55.0453 11.365 54.268 11.025 54.3851 10.1075C54.5201 9.40666 54.9153 8.78277 55.4912 8.36119C55.9713 8.02679 56.76 8.05535 57.4116 8.05249C66.0766 8.03534 74.7444 8.01819 83.4179 8.05249C86.6444 8.06678 87.9276 9.23294 88.2905 12.3169C89.125 19.3965 89.8994 26.4817 90.7682 33.5584C91.5084 39.5919 92.4143 45.6083 93.1259 51.6447C94.0833 59.7646 94.9092 67.896 95.8209 76.0188C96.0009 77.6222 96.3582 79.2056 96.5754 80.8062C96.9812 83.8158 95.3779 85.7593 92.2886 85.8536C89.5451 85.9393 86.7958 85.8736 83.8151 85.8736V89.1977C84.5067 89.3377 85.1383 89.572 85.7727 89.5806C88.722 89.6178 91.6799 89.6806 94.632 89.5806C98.9845 89.4177 100.942 87.0083 100.428 82.6554C99.5703 75.3871 98.6901 68.1246 97.8414 60.8564C97.7785 60.3134 97.7042 59.6103 97.9814 59.2302C98.3786 58.6785 99.056 58.1098 99.679 58.024C100.065 57.9697 100.768 58.7214 100.979 59.2502C101.358 60.2274 101.603 61.2512 101.708 62.2941C102.495 69.2831 103.25 76.2761 103.974 83.2728C104.523 88.6603 100.408 92.6703 96.0638 92.9704C93.1259 93.1762 90.1681 93.1133 87.2188 93.1876C86.0985 93.2162 84.9783 93.2962 83.5579 93.3676C83.5579 96.0771 83.5579 98.5352 83.5579 100.993C83.5579 103.088 83.5894 105.183 83.5179 107.281C83.4551 109.21 82.5977 110.922 79.9428 110.711C78.8012 110.628 77.655 110.628 76.5134 110.711C74.693 110.822 73.1811 110.591 72.2838 108.639C72.0209 108.067 70.9149 107.601 70.1804 107.584C66.2794 107.481 62.3728 107.547 58.4633 107.527C57.4002 107.527 56.6428 107.856 56.2456 108.919C55.694 110.402 54.508 110.779 53.0363 110.708C51.7045 110.645 50.3699 110.708 49.0353 110.691C46.1775 110.639 45.3773 109.833 45.3201 106.881C45.2687 104.217 45.3058 101.55 45.3058 98.8781V93.3877C44.0484 93.3076 42.9539 93.179 41.8593 93.1762C31.6711 93.1619 21.4801 93.2248 11.2805 93.1161C9.20542 93.1216 7.14763 92.7387 5.21334 91.9872C1.58104 90.481 -0.216596 86.8425 0.22351 82.9469C1.25804 73.7837 2.224 64.6149 3.3014 55.4574C4.26735 47.2489 5.38195 39.0546 6.35362 30.8461C7.09094 24.6182 7.67391 18.3704 8.40552 12.1425C8.60064 10.2504 8.96799 8.38012 9.50295 6.55483C10.5146 3.29942 13.764 1.02724 17.2963 1.00723C24.6266 0.964359 31.9598 0.990066 39.3016 0.990066C54.8253 0.990066 70.3471 0.990066 85.8671 0.990066C91.2427 0.990066 94.4406 3.59672 95.2122 8.88997C96.0895 15.0035 96.7182 21.1513 97.467 27.282C98.2729 33.8843 99.1131 40.4808 99.8991 47.086C100.091 48.6865 100.128 50.3099 100.228 51.9219C100.291 52.9537 99.6846 53.6968 98.7844 53.6768C98.2128 53.6768 97.587 52.9509 97.0926 52.4478C96.8669 52.2163 96.8497 51.7419 96.8069 51.3703C96.1981 46.0828 95.6323 40.7952 94.995 35.5077C94.2319 29.1884 93.4031 22.8776 92.6258 16.5583C92.3229 14.1089 92.1943 11.628 91.7685 9.1986C91.2169 5.97178 89.3022 4.36839 86.1242 4.36553C63.4521 4.34838 40.7876 4.34838 18.1307 4.36553C14.8871 4.36553 13.1809 5.71744 12.5894 8.88139C12.0178 11.8653 11.6263 14.8834 11.2777 17.9016C10.5546 24.1323 9.96015 30.3774 9.22854 36.6081C8.50837 42.7388 7.67964 48.8608 6.91374 54.9887C6.60509 57.4409 6.34217 59.8989 6.05639 62.3541C5.2762 69.3451 4.48741 76.3332 3.74438 83.3271C3.39572 86.6082 5.03898 88.8004 8.31691 89.4692C9.25258 89.6427 10.2032 89.7222 11.1547 89.7064C21.4429 89.7236 31.7311 89.7236 42.0193 89.7064H42.3051C45.3487 89.6521 45.4087 89.5778 45.0629 86.0394C44.1141 85.9794 43.1082 85.865 42.1051 85.865C32.678 85.8498 23.2472 85.8498 13.8125 85.865C13.0523 85.865 12.2864 85.9108 11.5262 85.8394C8.92848 85.5964 7.49676 84.0787 7.71967 81.5178C8.00545 78.2081 8.48552 74.9127 8.88848 71.6116C9.19998 69.065 9.55437 66.5213 9.8373 63.969C10.5146 57.8297 11.109 51.679 11.8378 45.5455C12.5665 39.4119 13.4267 33.2984 14.184 27.1677C14.5699 24.0552 14.8214 20.9255 15.1929 17.8102C15.4615 15.5465 15.8101 13.2914 16.1588 11.0392C16.4446 9.26718 17.7306 8.50409 19.3024 8.14397C20.0579 8.02168 20.8247 7.98336 21.5887 8.02967C29.7811 8.02967 37.9736 8.02967 46.166 8.02967C47.0234 8.02967 47.9579 7.96108 48.6752 8.31549C49.2468 8.58415 49.8412 9.45874 49.8183 10.0304C49.7926 10.5077 48.9381 11.1278 48.3323 11.3365C47.6464 11.5766 46.8291 11.4451 46.066 11.4451H19.8626C19.4854 13.1371 19.0052 14.672 18.8166 16.2439C17.8678 24.5525 17.0419 32.8782 16.0788 41.1868C15.3787 47.2261 14.5184 53.2452 13.7525 59.2787C13.4896 61.3537 13.3067 63.4373 13.0695 65.518C12.4465 70.9714 11.8149 76.4275 11.1604 82.0952H26.1184C26.2041 80.0945 26.2669 78.1424 26.3727 76.1932C26.5956 71.986 28.5418 68.7306 31.6511 65.9267C37.3668 60.7821 48.0522 61.3824 53.0477 67.8989C53.5507 68.5563 54.1079 69.1707 54.8795 70.0939C59.5235 63.283 65.8193 61.0451 73.4555 63.3144C77.2192 64.4348 79.9285 67.0986 81.809 70.6084C83.6894 74.1182 83.4808 77.9709 83.6379 82.1095ZM52.8905 107.215C52.8905 96.4887 53.4335 86.0165 52.7076 75.6329C52.1818 68.1532 44.7686 64.1204 37.7069 66.4869C31.4968 68.5619 28.3675 74.0267 30.2765 82.0923H34.0517C34.0517 80.2746 33.9917 78.6625 34.0517 77.0706C34.2032 73.5894 37.061 70.657 40.5247 70.2683C45.3601 69.7252 48.8324 73.9838 48.7867 77.6594C48.6781 86.4938 48.7524 95.3312 48.761 104.169C48.761 105.175 48.8267 106.169 48.861 107.221L52.8905 107.215ZM60.6067 82.1409C60.8639 79.6886 60.8925 77.5679 61.3383 75.5672C62.0842 72.2518 65.0535 70.2197 68.4829 70.2254C71.2321 70.2254 74.7472 72.4347 75.2645 75.6415C75.5121 77.2346 75.6514 78.8427 75.6817 80.4546C75.7132 81.8237 75.9675 82.9412 76.9563 84.0444C79.1454 86.5053 79.0511 89.0204 76.9563 91.4527C76.0834 92.4442 75.602 93.72 75.602 95.0411C75.602 96.3621 76.0834 97.6379 76.9563 98.6295C78.9882 101.01 79.0368 103.254 77.1421 105.775C76.8239 106.28 76.5376 106.805 76.2847 107.347L79.9428 107.15C79.9999 106.375 80.0628 105.909 80.0628 105.435C80.0628 96.4916 80.0856 87.5514 80.0456 78.6111C80.0704 77.2776 79.9088 75.9471 79.5655 74.6583C77.4907 67.6273 71.3407 64.3976 64.7048 66.4355C58.2604 68.4133 55.2397 75.2642 56.9058 82.1552L60.6067 82.1409ZM56.5772 103.791C57.036 103.911 57.5031 103.997 57.9746 104.048C62.7377 104.066 67.4922 104.066 72.2381 104.048C72.7096 104.048 73.2897 104.114 73.6298 103.877C74.1842 103.485 75.013 102.811 74.9473 102.368C74.8501 101.679 74.1757 100.993 73.5927 100.482C73.3069 100.233 72.681 100.353 72.2066 100.353C67.5484 100.353 62.8873 100.353 58.229 100.353C57.6716 100.403 57.1191 100.499 56.5772 100.639V103.791ZM71.958 93.2705C66.6081 93.1676 61.6326 93.039 56.6171 93.3248C56.5371 94.1822 56.4514 94.6481 56.4628 95.114C56.4628 95.657 56.5714 96.1972 56.64 96.8117H71.958V93.2705ZM56.7486 85.8793C56.3456 89.4206 56.4342 89.5578 59.2406 89.5949C61.8126 89.6321 64.3847 89.6149 66.9567 89.5949C68.9572 89.5949 70.9578 89.6235 72.944 89.4977C74.0271 89.4291 75.0816 88.9404 75.0301 87.6171C74.9787 86.2938 73.9556 85.9194 72.8267 85.9022C70.6405 85.8594 68.4514 85.8765 66.2537 85.8736C63.1301 85.8765 60.0094 85.8793 56.7572 85.8793H56.7486ZM72.0351 82.1267C72.0351 80.4604 72.1638 78.8684 72.0037 77.305C71.7579 74.9127 70.5062 73.8238 68.3314 73.8123C66.248 73.8123 64.7306 74.9985 64.4476 77.1964C64.2476 78.7569 64.4076 80.366 64.4076 82.1267H72.0351ZM45.2773 82.1552C45.2773 80.3917 45.3716 78.8912 45.2544 77.4079C45.0858 75.2614 43.634 73.9181 41.5935 73.8266C39.4215 73.7266 37.7411 75.0613 37.5239 77.2849C37.3725 78.8455 37.4925 80.4289 37.4925 82.1437L45.2773 82.1552Z" fill="#A4A0C6"/>
<path d="M52.1588 50.7216C46.0944 55.5347 41.0132 54.7601 36.2349 50.8045C35.0917 51.5019 33.9686 52.4251 32.6855 52.8995C31.1059 53.508 29.4443 53.8769 27.7557 53.9941C25.6666 54.0999 25.3751 53.5369 25.6323 50.976C26.2268 50.876 26.8669 50.6588 27.4957 50.6902C29.8476 50.7988 31.7138 49.7156 33.4228 48.3151C35.4747 46.6374 36.7379 46.6174 38.8527 48.4066C42.3935 51.4076 45.8001 51.4219 49.3695 48.4551C51.6072 46.5945 52.6131 46.5773 54.7565 48.3551C58.5002 51.4561 61.7696 51.4476 65.5163 48.3265C67.2595 46.8746 68.7971 46.4916 70.0888 47.6806C72.4579 49.8756 75.1186 51.0103 78.2793 50.713C79.0881 53.2853 78.7309 53.9113 76.5189 54.0514C73.2667 54.26 70.6861 52.728 68.194 50.7445C65.822 52.5365 63.3729 54.0456 60.275 54.0685C57.1771 54.0913 54.6336 52.6994 52.1588 50.7216Z" fill="#A4A0C6"/>
<path d="M36.1579 37.7112C33.9059 38.943 32.1083 40.6836 29.5305 40.515C29.059 40.4864 28.5331 40.6407 28.1216 40.4835C27.6529 40.3006 27.0557 39.932 26.9328 39.5175C26.886 39.2488 26.8969 38.9732 26.9649 38.7091C27.033 38.4449 27.1564 38.1982 27.3271 37.9855C27.7021 37.5517 28.2307 37.2802 28.8017 37.2282C30.9994 37.2282 32.4798 35.9477 34.0031 34.633C35.6835 33.1839 36.5923 33.1582 38.2269 34.6501C39.733 36.0249 41.2277 37.1595 43.4253 37.191C45.7116 37.2253 47.6635 36.7765 49.4268 35.1903C51.8988 32.9752 52.3217 32.9381 54.6366 35.096C57.7059 37.9541 62.7757 37.8398 65.7364 35.0331C67.857 33.0325 68.2913 33.1439 70.4918 34.896C71.8922 36.0135 73.2439 37.2453 75.2472 37.1825C75.6816 37.1682 76.2961 37.3682 76.5304 37.6884C76.9305 38.2371 77.3449 38.9859 77.2735 39.5947C77.2306 39.9691 76.2504 40.5664 75.7703 40.4979C74.1001 40.2737 72.4552 39.8909 70.8577 39.3546C69.906 39.0316 69.0973 38.2857 68.1656 37.6884C62.7957 41.7298 57.4401 41.6154 52.1017 37.7541C46.8004 41.5411 41.5335 41.7869 36.1579 37.7112Z" fill="#A4A0C6"/>
<path d="M76.1794 25.433C74.379 27.671 74.379 27.671 68.2118 24.6128C66.5714 25.3902 65.0682 26.1276 63.5364 26.8193C59.9355 28.4484 56.7147 27.4138 53.6826 25.3273C52.7452 24.6842 51.885 24.3383 50.8476 25.1158C46.0893 28.6741 41.4025 28.2597 36.7843 24.8299C36.6202 24.7369 36.4456 24.664 36.2641 24.6128C34.5723 25.3902 32.8833 26.179 31.1829 26.9364C30.8457 27.0879 30.3998 27.3051 30.1112 27.1993C29.5225 26.985 28.6308 26.6277 28.5508 26.2219C28.4394 25.6217 28.8223 24.8157 29.231 24.2755C29.5339 23.8696 30.2198 23.761 30.7199 23.4895C31.5316 23.0465 32.4118 22.6807 33.1176 22.1005C35.8383 19.8626 36.2956 19.7968 38.9334 22.0262C41.4168 24.1269 44.1317 24.5985 47.1239 23.3723C47.8246 23.1005 48.4711 22.7056 49.0329 22.2062C51.142 20.2055 52.3137 19.5739 55.0715 22.0776C57.5893 24.3641 60.5014 24.5842 63.5278 23.2495C64.448 22.8436 65.2054 22.0633 66.0341 21.4488C67.8489 20.1084 68.4919 20.1541 70.2895 21.4317C71.4983 22.2891 72.8444 22.9579 74.0847 23.7782C74.8277 24.2583 75.485 24.8757 76.1794 25.433Z" fill="#A4A0C6"/>
</svg>
