<svg width="110" height="96" viewBox="0 0 110 96" fill="none" xmlns="http://www.w3.org/2000/svg">
<path d="M110 94.6762C108.623 94.8992 107.245 95.3193 105.865 95.3222C80.2492 95.3622 54.6354 95.3717 29.0235 95.3508C20.9301 95.3508 12.8329 95.3508 4.73194 95.3508C3.87459 95.3508 2.95433 95.4479 2.19129 95.1621C1.87293 95.0135 1.58753 94.8026 1.35194 94.542C1.11635 94.2813 0.935243 93.9762 0.819444 93.6444C0.533661 92.7498 1.28248 92.264 2.10268 92.1211C3.21723 91.9239 4.34318 91.8124 5.77781 91.6209C5.85497 90.3062 5.92649 89.0314 5.99508 87.8596C5.08629 86.8535 3.16001 87.711 3.10571 85.8189C3.05141 83.9268 4.71193 84.0354 5.87507 83.6096V80.1284C4.94628 79.1938 3.01714 79.451 3.13432 77.5561C3.18861 76.6586 3.48866 76.4585 5.82065 75.6439V71.9827C4.45461 71.3625 2.39134 71.1938 3.40587 68.6358L5.79497 67.8641V63.6369C4.73758 63.5426 3.82304 63.4398 2.90854 63.3797C1.53678 63.2883 0.782292 62.5223 0.747998 61.2047C0.67941 58.7324 0.625111 56.2515 0.747998 53.7735C0.839449 51.9529 1.60543 51.3298 3.54304 51.287C6.30084 51.2241 9.06437 51.2127 11.8307 51.287C13.2597 51.3241 14.0312 50.8754 14.5542 49.4378C17.0797 42.296 22.264 36.4048 29.0263 32.9921C36.6824 29.0307 44.7958 27.576 53.2664 30.4455C54.2438 30.7742 55.3327 30.9057 56.1872 31.4258C56.7073 31.7402 57.236 32.7234 57.1017 33.2265C56.9674 33.7295 55.9443 34.2611 55.3641 34.2097C53.7581 34.0644 52.1711 33.7541 50.6286 33.2836C45.8875 31.8546 41.235 32.3205 36.5853 33.6895C25.7256 36.8849 18.6781 44.0616 16.5176 55.0197C14.2456 66.5294 18.0466 76.4099 27.4288 83.721C33.2474 88.2569 40.0033 90.1204 47.4165 89.7689C49.1512 89.686 50.1314 89.0686 50.8688 87.4366C56.8188 74.2435 62.8307 61.078 68.9045 47.9401C69.4161 46.8312 69.4933 45.9795 68.6702 45.0992C66.8041 43.0985 64.9549 41.0978 63.0487 39.1456C62.3611 38.492 61.6031 37.9168 60.7883 37.4308C59.708 36.7448 59.3594 35.7159 60.0024 34.7585C60.694 33.7238 61.8943 33.901 62.7659 34.6184C65.0179 36.4848 67.3127 38.334 69.3618 40.4033C72.3225 43.4043 74.2458 47.117 75.8091 51.2642H78.9527C88.0977 51.2642 97.2428 51.2642 106.388 51.2642C107.711 51.2642 109.068 51.1327 109.994 52.4074V62.125C109.088 64 107.137 63.1054 105.522 63.7513V68.0213C106.442 68.4186 108.134 68.47 107.591 70.0049C107.265 70.928 106.162 71.574 105.405 72.3485V75.0981C106.396 76.1899 107.691 77.0759 107.562 77.5903C107.299 78.5993 106.239 79.4053 105.408 80.4171V82.9894C106.399 84.0726 107.388 84.6813 107.619 85.5045C108.102 87.2194 106.048 86.9478 105.253 87.8081C105.328 89.1143 105.399 90.3805 105.465 91.5552L109.994 92.3783L110 94.6762ZM54.3868 87.994C55.367 87.9054 55.7527 87.9539 56.0757 87.831C60.8943 86.0624 65.1074 82.9536 68.2187 78.8708C70.042 76.4871 70.7764 76.2756 73.4885 77.4417C80.6883 80.5437 87.8852 83.6525 95.0793 86.7678C96.8998 87.5567 97.5285 87.3766 98.5087 85.6045C98.8116 85.0133 99.0641 84.3976 99.2633 83.7639C100.135 81.2716 100.041 80.9058 97.66 79.8197C92.9275 77.6847 88.1634 75.6211 83.3908 73.5747C81.1617 72.6172 78.8898 71.7683 76.6921 70.8938C75.5775 72.2171 75.2632 74.3778 72.5911 73.1002C72.5196 69.4761 74.2829 65.8892 74.1171 62.1479C73.9514 58.3323 73.8 54.4309 71.4994 50.601C65.7495 63.2054 60.1682 75.3839 54.3868 87.994ZM106.862 55.0226C103.699 54.4081 79.0669 54.5252 76.8293 55.2112C77.1398 56.7355 77.456 58.2798 77.778 59.8442H106.862V55.0226ZM4.26601 59.8499H12.4537C12.5508 58.0807 12.6367 56.4688 12.7224 54.8854H4.26601V59.8499ZM83.0508 63.5941V69.8248L86.3258 70.8109C86.7231 68.2929 86.8402 66.0092 86.2201 63.5912L83.0508 63.5941ZM14.257 91.6466V87.4138H9.59877V91.6466H14.257ZM98.0716 71.837C97.2142 75.9155 97.5686 76.4528 101.684 77.3074C101.738 76.5586 101.818 75.8297 101.838 75.0981C101.864 74.0748 101.838 73.0488 101.838 71.837H98.0716ZM25.6484 87.0422V91.3294C28.6405 92.2526 31.6498 92.121 33.1159 91.0807L25.6484 87.0422ZM101.615 63.4912C100.055 63.6026 98.5574 62.771 97.9601 64.3086C97.5914 65.2632 97.5857 66.7151 98.0773 67.5611C98.7917 68.7987 100.221 68.2243 101.615 67.9728V63.4912ZM9.553 83.4981C11.0533 84.0698 12.7076 84.0921 14.2228 83.561V79.7968H9.553V83.4981ZM9.6617 71.7969V76.027L14.2342 75.8269V71.7969H9.6617ZM66.8354 87.3565V91.5638H70.9964V87.3565H66.8354ZM74.8373 91.5037C76.2662 91.901 77.6094 92.3326 78.5525 91.4551C79.6956 90.389 79.227 88.8828 78.884 87.4537H74.8316L74.8373 91.5037ZM94.1877 68.1128C94.0962 66.3979 94.0191 64.9689 93.9362 63.3883L90.0325 63.6913C90.1354 65.3547 90.2154 66.6866 90.3183 68.1128H94.1877ZM17.995 91.5952H21.8274V87.4623H17.995V91.5952ZM86.2629 87.388H82.8108C82.8765 88.8885 82.9364 90.229 82.9878 91.4322C85.9571 92.5498 87.286 91.618 86.2629 87.388ZM12.7852 68.0299C12.8245 67.2042 12.8198 66.3771 12.771 65.5519C12.5195 63.4055 12.3137 63.3025 9.62737 63.8627V68.0299H12.7852ZM57.396 91.1951C59.4165 92.2669 61.1854 91.941 63.0487 91.5352V88.4426L57.396 91.1951ZM90.1981 91.5638C91.1241 91.6867 91.7672 91.7924 92.4159 91.8496C92.7017 91.8724 93.056 91.8953 93.2446 91.7467C93.5733 91.4866 94.0192 91.0922 94.0163 90.7578C94.0163 89.6145 91.4156 88.4855 90.1981 89.1801V91.5638ZM101.564 91.8496V88.0483L97.277 91.5094L101.564 91.8496ZM21.4244 83.7153C21.5273 83.4866 21.6331 83.258 21.7388 83.0294C20.1613 82.4149 20.0012 80.2855 18.0436 79.9254V83.7153H21.4244ZM94.1478 71.8712H90.1924C91.3984 73.3975 91.3985 73.3975 93.9648 73.9548C94.022 73.3346 94.0763 72.7087 94.1478 71.8941V71.8712ZM78.8755 63.8199L77.941 63.617C77.7267 64.6459 77.4266 65.6691 77.3694 66.7094C77.3523 66.9524 78.1182 67.2497 78.887 67.7613L78.8755 63.8199ZM77.9238 83.7582L77.9752 83.3352C77.3522 82.9636 76.7607 82.5063 76.0919 82.2634C75.8858 82.2131 75.6706 82.2128 75.4643 82.2625C75.258 82.3122 75.0666 82.4105 74.906 82.5492C74.7202 82.7607 74.926 83.3152 74.9632 83.7525L77.9238 83.7582ZM68.9359 83.7839C70.2162 83.741 71.3366 84.2526 71.1651 82.5692C71.1365 82.2834 70.8393 82.0347 70.4935 81.506C69.9276 82.3577 69.536 82.9322 68.9359 83.8068V83.7839Z" fill="#A4A0C6"/>
<path d="M91.2847 29.2881C88.3269 28.362 86.2835 29.0909 84.4917 31.2259C82.917 33.1065 81.0622 34.7528 79.2732 36.4534C78.5959 37.0965 77.8271 37.8196 76.7897 37.0022C75.9095 36.3105 75.8752 35.1187 76.8669 34.024C78.3301 32.412 79.9048 30.8972 81.4394 29.3338C82.011 28.7336 82.5827 28.1191 83.3114 27.3531L79.2789 23.6862C77.2584 25.6669 75.2608 27.6103 73.2775 29.5682C72.0686 30.7571 70.8655 31.9547 69.6852 33.1723C68.8536 34.0297 67.8761 34.4899 66.9845 33.5067C66.2129 32.6492 66.3187 31.626 67.2132 30.7343C69.348 28.6021 71.4228 26.4099 73.5662 24.2892C78.0901 19.8162 77.3071 21.7169 76.3154 15.8206C76.2583 15.4719 76.1468 15.1289 75.941 14.3201C74.7608 15.3805 73.8177 16.2322 72.8689 17.081C72.1658 17.7098 71.4886 18.37 70.7484 18.9531C70.0539 19.5047 69.1794 19.4933 68.7479 18.7787C68.4135 18.2414 68.3878 17.3811 68.5278 16.7295C68.6336 16.2436 69.2022 15.8435 69.6023 15.4433C73.2222 11.8325 76.8422 8.22651 80.4621 4.62527C87.3409 -2.21709 98.3922 -0.422148 102.936 7.30623C106.177 12.8196 105.902 19.1131 101.547 23.9148C97.0975 28.8165 92.2334 33.3467 87.5437 38.0426C86.7835 38.8028 86.0006 39.6802 84.926 38.5799C83.8972 37.5309 84.3059 36.5792 85.2547 35.6417C86.8779 34.0583 88.4526 32.4263 90.033 30.8C90.4074 30.4028 90.736 29.9397 91.2847 29.2881ZM90.5616 25.5725C91.9903 25.6032 93.4106 25.3465 94.7381 24.8176C96.0657 24.2886 97.2733 23.4983 98.2895 22.4935C99.3057 21.4886 100.11 20.2899 100.653 18.9683C101.197 17.6467 101.47 16.2293 101.456 14.8002C101.456 8.3723 97.0175 4.01652 90.7159 3.93935C83.9858 3.8536 79.7934 9.22687 79.7533 14.6373C79.7076 20.6308 84.7602 25.6668 90.5616 25.584V25.5725Z" fill="#A4A0C6"/>
<path d="M83.071 41.7065C83.1396 42.9355 80.4761 45.4993 79.2901 45.3506C78.2441 45.2192 77.4725 43.9216 78.1184 43.007C78.8787 41.949 79.8144 41.0287 80.8848 40.286C81.7536 39.6887 83.0081 40.6204 83.071 41.7065Z" fill="#A4A0C6"/>
</svg>
