<svg width="128" height="128" viewBox="0 0 128 128" fill="none" xmlns="http://www.w3.org/2000/svg">
<path d="M34.3204 90.4976L37.2411 93.9102C43.1282 88.0253 48.4352 82.7149 53.9423 77.2073L50.7986 73.9662L46.6034 77.9676C45.8489 78.6907 45.203 79.6282 44.3171 80.0683C43.717 80.3541 42.6024 80.2084 42.0308 79.8168C41.1363 79.2194 41.505 78.3077 42.1737 77.616C43.7484 75.984 45.2573 74.2749 46.9463 72.7572C48.5701 71.3022 49.8599 69.5131 50.7272 67.5126C51.8132 65.086 52.9192 62.6537 54.0966 60.2815C54.7568 58.9467 54.3824 57.7549 54.0366 56.4373C53.2307 53.3248 52.2076 50.198 51.9704 47.0226C51.5389 41.2435 52.9106 35.713 55.8256 30.6713C57.0459 28.5591 58.5977 26.6327 60.0781 24.6692C60.4692 24.1445 61.0294 23.771 61.6641 23.6117C61.9761 23.5756 62.2921 23.6042 62.5925 23.6957C62.893 23.7871 63.1713 23.9395 63.4103 24.1433C63.696 24.4291 63.6561 25.2408 63.476 25.7067C63.2445 26.2955 62.7416 26.7842 62.3329 27.2873C56.8459 33.9181 54.3309 41.3464 55.9885 50.0037C56.943 54.9768 58.2033 59.807 61.5613 63.7684C64.1707 66.9187 67.6904 69.1848 71.638 70.2564C73.9242 70.8823 76.0848 71.734 78.4968 72.057C87.1331 73.226 94.6978 71.0652 101.002 65.0889C104.432 61.8363 108.01 58.558 110.67 54.7053C119.269 42.2667 115.674 24.6949 102.265 16.5435C95.3237 12.3278 87.9019 11.7876 80.3115 13.734C76.5353 14.7303 73.0784 16.6799 70.2719 19.396C69.8032 19.8447 69.2545 20.362 68.6687 20.4906C68.02 20.6307 66.9797 20.5964 66.6682 20.2048C66.3567 19.8132 66.3824 18.65 66.7197 18.167C67.4555 17.1816 68.3373 16.3142 69.3346 15.5947C75.5647 10.9359 82.6006 8.5265 90.3539 9.25818C102.688 10.4214 111.836 16.6064 116.423 28.2304C121.307 40.6004 118.835 51.8957 109.587 61.5048C106.464 64.798 103.1 67.855 99.5247 70.6508C96.1353 73.2574 92.1172 74.6522 87.8076 75.3581C82.2634 76.3082 76.5656 75.7444 71.315 73.7261C70.6036 73.4511 69.8391 73.3406 69.0789 73.403C68.3187 73.4653 67.5825 73.6989 66.9254 74.0862C64.8678 75.2295 62.5844 75.9526 60.5296 77.093C58.7377 78.0905 56.9373 79.2194 55.4684 80.6285C50.7701 85.1386 46.2204 89.8002 41.6222 94.4161C40.5533 95.4879 39.6931 96.5912 39.8074 98.3289C39.8589 99.1435 39.2959 100.204 38.6815 100.827C33.3059 106.257 27.9446 111.711 22.3918 116.961C19.5769 119.622 15.1787 120.185 11.392 116.641C8.17697 113.631 7.72255 108.575 11.5149 104.754C15.5159 100.724 19.5397 96.7255 23.5549 92.7098C24.558 91.7066 25.5326 90.6777 26.5557 89.6945C27.6731 88.6227 28.8848 87.8596 30.5566 87.8224C31.3768 87.8053 32.2913 87.2279 32.9743 86.6792C34.1178 85.6865 35.2109 84.6372 36.2494 83.5352C37.0525 82.7378 37.7955 81.6632 39.0873 82.6778C40.1132 83.4809 39.9075 84.5699 38.5157 86.0504C37.604 87.0221 36.6467 87.9482 35.7236 88.9085C35.2921 89.3144 34.9549 89.7688 34.3204 90.4976ZM25.7926 108.727C23.7921 106.666 22.0374 104.845 20.2599 103.048C19.5197 102.296 18.7424 102.373 18.0222 103.102C16.4904 104.66 14.8786 106.146 13.4696 107.809C11.7292 109.876 11.8807 112.459 13.6383 114.237C15.3073 115.926 18.468 115.989 20.3856 114.214C22.1718 112.565 23.8093 110.75 25.7926 108.727ZM64.5391 71.4682L56.4629 63.4797C55.8913 64.6087 55.2597 65.7291 54.7482 66.8952C52.6791 71.4682 52.6906 71.4682 56.7144 74.6322C56.7801 74.6865 56.8944 74.6807 57.3202 74.7779L64.5391 71.4682ZM24.6666 96.5683L21.6974 99.3978L28.4476 106.134L30.9139 103.525L24.6666 96.5683ZM27.2387 93.9274C29.4535 96.3768 31.4397 98.6804 33.9318 100.47C34.7177 99.7923 35.4321 99.3893 35.8093 98.7776C36.0951 98.3117 36.2495 97.3143 35.9694 97.017C34.1375 95.0706 32.54 92.8327 29.9679 91.4065L27.2387 93.9274Z" fill="#A4A0C6"/>
<path d="M60.1719 45.6504C60.2347 39.494 62.1238 34.4866 66.1162 30.3423C68.7397 27.6185 71.206 24.6632 74.1695 22.3652C80.2767 17.6379 87.1069 16.0574 94.7459 18.4982C102.639 21.0191 107.692 26.2494 109.721 34.0979C111.721 41.8491 110.041 48.9601 104.443 54.9108C102.048 57.4516 99.7128 60.0983 97.0351 62.3105C91.2308 67.1064 84.6406 68.8841 77.1388 66.9635C67.9938 64.6284 62.8497 58.5577 60.5063 49.769C60.1233 48.3285 60.2519 46.7508 60.1719 45.6504ZM91.6337 34.0836C89.7247 32.1343 88.2501 30.6338 86.6783 29.0333L80.5139 35.2954L85.0865 39.6826L91.6337 34.0836ZM87.8243 42.5494L92.714 47.351L98.7926 41.1031L93.9629 36.3958L87.8243 42.5494ZM71.7718 43.9584L76.6644 48.8172L82.8602 42.5065L77.9276 37.7763L71.7718 43.9584ZM83.6976 56.3112L90.2706 49.7175L85.3208 45.0445L79.0164 51.401L83.6976 56.3112ZM73.0121 27.7728L77.9305 32.5973L84.1691 26.6753C83.2832 25.6835 82.503 24.7747 81.6828 23.9029C80.6968 22.8597 79.6109 22.6996 78.4306 23.6171C76.7416 24.9233 75.0441 26.218 73.0121 27.7728ZM70.7659 30.4366C68.4139 32.6631 66.5363 34.7238 65.4217 37.4962L68.1881 40.4343C69.0255 41.3204 69.7142 41.1803 70.5744 40.3314C72.1805 38.7509 73.9124 37.299 75.8014 35.607L70.7659 30.4366ZM95.0575 49.7461L100.122 54.7964C101.662 52.8758 103.122 51.2638 104.305 49.4717C104.734 48.8229 104.877 47.4711 104.483 46.8994C103.671 45.7133 102.413 44.833 101.288 43.7755L95.0575 49.7461ZM90.0391 62.6306C93.3199 61.03 95.7262 59.5438 97.2865 56.9143L92.4997 52.3842L86.3039 58.7321L90.0391 62.6306ZM68.2453 57.143L74.1724 51.2524L69.3141 46.525C67.8109 47.9769 66.542 49.0973 65.4189 50.3435C65.0359 50.7693 64.7044 51.6353 64.8816 52.0955C65.5817 53.9047 66.2305 55.7996 68.251 57.1487L68.2453 57.143ZM100.567 25.1033C98.3411 23.8686 96.8522 22.9169 95.2604 22.2309C94.9106 22.1249 94.5413 22.1004 94.1806 22.1594C93.82 22.2184 93.4776 22.3592 93.1798 22.571C91.8024 23.7743 90.6078 25.1862 89.236 26.6324L93.8457 31.0368C96.0862 29.0618 98.0382 27.3384 100.567 25.1033ZM70.7344 59.661C72.089 61.7503 74.1638 62.139 75.8328 63.1279C76.0508 63.2065 76.2848 63.2302 76.5141 63.1968C76.7434 63.1634 76.9609 63.074 77.1474 62.9364C78.5449 61.5788 79.8538 60.1297 81.517 58.3634L76.6587 53.7218L70.7344 59.661ZM102.842 27.5299L96.3778 34.0436L101.316 38.6509C102.851 37.1189 104.22 35.8642 105.426 34.4723C105.603 34.2128 105.718 33.9156 105.761 33.6041C105.805 33.2926 105.775 32.9754 105.674 32.6774C104.937 31.0883 104 29.5792 102.842 27.5299ZM89.1046 21.3135C87.4928 20.1931 86.0524 20.9791 84.6206 21.6164C85.2637 22.5339 85.8381 23.3599 86.4296 24.2059L89.1046 21.3135ZM63.8385 46.9309L66.6192 44.1213C65.436 42.5293 65.436 42.5293 63.8385 42.0806V46.9309ZM81.2513 63.9253C83.0946 64.2283 84.5463 64.354 86.3953 63.508L84.4406 60.8814L83.4061 60.9671C82.7688 61.836 82.1372 62.7049 81.2513 63.9253ZM106.903 39.0939L106.072 38.768L103.477 40.8373L106.62 43.6955C106.735 41.7577 106.82 40.4401 106.903 39.0939Z" fill="#A4A0C6"/>
<path d="M83.1752 118.107C78.9313 118.202 76.0649 116.341 74.3159 113.008C72.6012 109.773 72.644 106.323 74.8874 103.325C76.525 101.13 77.2223 98.5948 78.1825 96.1596C79.7743 92.1182 81.1318 87.9854 82.6407 83.9097C83.0694 82.7664 83.4981 81.5289 84.2383 80.5885C87.9334 75.9269 93.7891 76.167 97.0985 81.0687C98.033 82.452 98.6875 83.0694 100.379 82.9379C104.492 82.6092 108.861 86.2962 108.333 90.9607C108.15 92.5841 108.673 93.4901 110.233 94.2675C112.917 95.608 114.22 98.2175 114.051 101.058C113.871 104.059 112.528 106.709 109.356 107.884C103.249 110.144 97.1357 112.391 91.0656 114.717C89.9395 115.195 88.8823 115.821 87.922 116.578C86.3959 117.698 84.7298 118.227 83.1752 118.107ZM84.8898 103.711C85.7043 104.534 86.1988 104.98 86.6246 105.48C87.4362 106.429 88.1278 106.235 89.0251 105.506C93.7091 101.696 98.3845 97.8774 103.177 94.2104C105.22 92.647 105.423 89.3516 103.826 87.6653C102.077 85.8132 98.9933 86.1247 97.1614 88.3712C93.7634 92.5355 90.4112 96.737 87.0475 100.93C86.3559 101.79 85.6929 102.676 84.8898 103.711ZM110.585 100.853C110.233 99.2693 109.833 97.8545 108.238 97.1114C106.758 96.4226 105.492 96.7141 104.283 97.683C100.013 101.086 95.743 104.49 91.4714 107.895C90.7656 108.467 90.1568 109.064 90.6141 110.044C91.1485 111.208 92.0087 110.639 92.7918 110.37C95.3638 109.481 97.9787 108.638 100.536 107.681C103.094 106.723 105.592 105.614 108.144 104.648C109.976 103.942 110.19 102.339 110.585 100.847V100.853ZM80.4659 100.327C82.0978 101.49 82.8065 100.655 83.5638 99.7008C86.8503 95.5508 90.174 91.4266 93.4776 87.2909C94.8551 85.576 95.0894 83.6267 93.8091 82.432C92.1287 80.8515 90.6655 80.1027 88.4536 81.3802C87.0847 82.1719 86.536 83.4067 86.0387 84.73C84.8708 87.8301 83.7277 90.9378 82.6093 94.0532C81.8463 96.1396 81.1604 98.2632 80.4659 100.321V100.327ZM83.038 115.026C84.1097 114.532 85.2671 114.169 86.2359 113.514C87.9077 112.394 87.9506 111.936 86.5217 110.416C84.7212 108.492 82.8636 106.615 80.9489 104.805C79.7086 103.636 78.5998 103.808 77.6652 105.246C76.4507 107.121 76.2221 109.193 77.2595 111.165C78.394 113.354 80.1687 114.849 83.0265 115.02L83.038 115.026Z" fill="#A4A0C6"/>
</svg>
