<svg width="128" height="128" viewBox="0 0 128 128" fill="none" xmlns="http://www.w3.org/2000/svg">
<path d="M63.9825 8.81678H114.28C115.043 8.81678 115.806 8.81678 116.567 8.83965C117.933 8.88823 118.641 9.69707 118.793 10.9718C118.862 11.8274 118.879 12.6864 118.844 13.5441V113.79C118.844 113.982 118.844 114.17 118.844 114.362C119.064 117.829 118.196 118.649 114.843 118.52C111.491 118.392 108.179 118.495 104.841 118.495H13.3932C9.14932 118.495 9.00929 118.369 9.00929 114.207C9.00738 80.5024 9.00643 46.7985 9.00643 13.0954C9.00643 12.5238 8.98071 11.9522 9.03215 11.3805C9.20648 9.42271 9.72375 8.87966 11.6957 8.83678C14.362 8.77676 17.0284 8.81678 19.6976 8.81678H63.9825ZM96.1417 13.9614C92.7123 13.3155 33.7724 13.4612 31.6004 14.0843C29.8257 23.3075 23.5356 29.5696 14.2877 31.3188C13.6018 33.6482 13.5418 93.2459 14.2048 95.8925C23.8929 97.9104 29.5971 103.852 31.6719 113.381C34.8555 113.953 93.9726 113.836 96.1532 113.247C98.2051 103.667 104.039 97.8789 113.655 95.8839C114.34 92.74 114.178 33.4195 113.5 31.3817C103.981 29.3267 98.1994 23.6019 96.1417 13.97V13.9614ZM101.669 13.7985C101.757 19.9292 108.362 26.3743 113.852 25.7569V13.8071L101.669 13.7985ZM113.889 113.533V101.58C108.313 100.831 101.206 107.937 101.837 113.533H113.889ZM14.1162 101.449C13.5161 104.936 13.6504 111.392 14.4192 113.667C18.2629 113.744 22.1953 113.822 26.1163 113.619C26.1849 107.725 19.7204 101.266 14.1162 101.449ZM13.9419 25.8884C19.8776 25.937 26.3392 19.3947 26.0705 13.6813C22.0696 13.5556 18.0686 13.4784 13.9419 13.7356V25.8884Z" fill="#A4A0C6"/>
<path d="M54.3742 52.5203C54.5171 56.7303 51.0362 62.4037 44.3289 62.2379C38.7275 62.0864 34.7266 58.0593 34.7266 52.4374C34.7266 46.9012 38.8247 42.754 44.4118 42.6997C45.7187 42.6602 47.0201 42.8861 48.2372 43.3637C49.4544 43.8414 50.562 44.561 51.4933 45.4789C52.4245 46.3969 53.1599 47.4942 53.6551 48.7044C54.1502 49.9147 54.3949 51.2128 54.3742 52.5203ZM49.373 52.5203C49.373 49.5421 47.3725 47.4757 44.4661 47.5043C41.5596 47.5328 39.502 49.7307 39.5734 52.6117C39.5726 53.9048 40.0828 55.1459 40.9928 56.0645C41.9028 56.9832 43.1388 57.505 44.4318 57.5163C47.2382 57.5706 49.3644 55.4241 49.373 52.5146V52.5203Z" fill="#A4A0C6"/>
<path d="M44.4437 65.1134C50.0079 65.0763 54.2517 69.1777 54.3946 74.6196C54.5118 79.0782 51.251 84.5687 44.6123 84.6488C38.1764 84.7231 34.7813 79.3869 34.6699 75.0683C34.5498 70.5353 38.1879 64.9162 44.4437 65.1134ZM49.3706 74.9483C49.4163 71.9987 47.3958 69.8351 44.5723 69.8036C43.9094 69.7934 43.2514 69.9173 42.6378 70.1681C42.0241 70.4189 41.4676 70.7913 41.0016 71.2629C40.5357 71.7345 40.17 72.2955 39.9266 72.9122C39.6832 73.5288 39.5671 74.1884 39.5853 74.8511C39.5853 77.6435 41.5858 79.7099 44.3322 79.8271C47.2043 79.9471 49.3277 77.9007 49.3706 74.9483Z" fill="#A4A0C6"/>
<path d="M93.1039 52.5035C93.1039 58.034 88.74 62.2812 83.1386 62.2211C77.5373 62.1611 73.1876 57.7996 73.2848 52.332C73.3562 48.3506 76.4456 42.763 83.1615 42.6858C84.4623 42.6649 85.7542 42.9037 86.9617 43.3881C88.1692 43.8725 89.268 44.5928 90.1937 45.507C91.1195 46.4212 91.8537 47.5108 92.3534 48.7121C92.8531 49.9135 93.1082 51.2024 93.1039 52.5035ZM78.2631 52.5778C78.1517 55.2101 80.4179 57.4967 83.3272 57.5024C86.0479 57.5024 88.2884 55.1358 88.2427 52.4006C88.2366 51.7427 88.099 51.0926 87.8382 50.4886C87.5774 49.8846 87.1985 49.3388 86.7238 48.8832C86.2491 48.4276 85.6882 48.0715 85.074 47.8358C84.4598 47.6 83.8047 47.4894 83.1472 47.5104C80.3636 47.5647 78.0602 49.8454 78.2631 52.5778Z" fill="#A4A0C6"/>
<path d="M93.1034 74.9481C93.0748 80.41 88.4766 84.8029 82.9524 84.6429C77.5825 84.4914 73.2358 80.027 73.2786 74.7109C73.3215 69.2576 77.8197 65.0361 83.4925 65.1305C89.0024 65.2305 93.132 69.4462 93.1034 74.9481ZM83.2067 69.8035C80.2518 69.9235 78.1284 72.2872 78.2455 74.9281C78.3742 77.7862 80.5575 79.9213 83.3896 79.8241C84.6792 79.7806 85.9021 79.2404 86.8027 78.3162C87.7033 77.3921 88.2119 76.1556 88.2222 74.8652C88.2193 73.5316 87.6914 72.2527 86.7527 71.3054C85.8141 70.3581 84.5402 69.8185 83.2067 69.8035Z" fill="#A4A0C6"/>
<path d="M63.9629 53.6865C69.4728 54.1524 73.811 57.7879 73.6967 63.83C73.5767 70.1179 68.8755 73.5334 63.9001 73.5477C62.5934 73.5703 61.2957 73.3287 60.0848 72.8373C58.8739 72.3459 57.7747 71.6149 56.8534 70.6881C55.932 69.7613 55.2074 68.6578 54.723 67.4439C54.2387 66.2301 54.0046 64.9308 54.0348 63.6242C54.072 57.6593 58.6845 53.9466 63.9629 53.6865ZM69.0013 63.5156C68.9241 60.9433 66.3692 58.4739 63.8315 58.5025C61.0908 58.5339 58.6874 61.1262 58.8303 63.9158C58.9589 66.5395 61.4852 68.8803 64.0858 68.7746C66.6236 68.7003 69.0785 66.0708 69.0013 63.5156Z" fill="#A4A0C6"/>
<path d="M63.8022 76.1084C68.9091 76.2513 73.7303 79.7497 73.6989 86.0318C73.6703 92.1768 69.2692 95.7495 64.0594 95.9267C59.0096 96.0953 54.1141 92.2111 54.0313 86.1576C53.9541 80.3184 58.4466 76.3056 63.8022 76.1084ZM69.0006 86.0433C69.0206 83.5167 66.5057 80.8986 63.9965 80.8272C61.4388 80.7586 58.9181 83.1966 58.8296 85.8232C58.8132 86.5043 58.9324 87.1818 59.18 87.8165C59.4276 88.4512 59.7988 89.0303 60.2721 89.5204C60.7453 90.0104 61.3112 90.4016 61.9368 90.6712C62.5624 90.9407 63.2353 91.0833 63.9165 91.0907C66.5114 91.0764 68.9777 88.6241 69.0006 86.0433Z" fill="#A4A0C6"/>
<path d="M73.7677 41.3018C73.4819 47.624 68.7751 51.2167 63.7824 51.1795C61.1973 51.178 58.7184 50.1505 56.8902 48.3226C55.0619 46.4947 54.0338 44.0159 54.0315 41.4304C53.9915 35.5255 58.4526 31.427 63.7996 31.3841C68.8437 31.3441 73.4305 34.8568 73.7677 41.3018ZM69.0008 41.4162C69.0666 38.8438 66.646 36.2972 64.0625 36.2229C62.7359 36.2042 61.453 36.6964 60.4794 37.5977C59.5058 38.4991 58.9162 39.7404 58.8327 41.0646C58.7069 43.8398 61.1361 46.4608 63.851 46.4808C66.3345 46.5008 68.9351 43.9427 69.0008 41.4162Z" fill="#A4A0C6"/>
<path d="M37.7218 39.8785C36.9559 39.5641 36.3157 39.4812 35.9499 39.1211C33.8694 37.0804 31.7918 35.0311 29.8685 32.8618C28.7654 31.6328 28.8682 30.4466 29.7856 29.5921C30.2644 29.1931 30.869 28.9768 31.4921 28.9815C32.1153 28.9862 32.7166 29.2117 33.1893 29.6178C35.3784 31.6928 37.5132 33.8364 39.4765 36.1172C39.9452 36.6574 39.9509 37.9607 39.6394 38.6895C39.3822 39.2754 38.3362 39.5241 37.7218 39.8785Z" fill="#A4A0C6"/>
<path d="M40.2828 89.9421C39.7884 90.6938 39.4712 91.3712 38.9797 91.8942C37.223 93.7387 35.4283 95.5488 33.5955 97.3247C33.2097 97.6991 32.6296 98.1221 32.1666 98.105C31.3092 98.0764 30.2776 97.9563 29.6403 97.4619C29.4495 97.3103 29.2932 97.1197 29.1818 96.903C29.0704 96.6862 29.0065 96.4482 28.9943 96.2048C28.9822 95.9614 29.022 95.7182 29.1112 95.4914C29.2004 95.2646 29.3369 95.0594 29.5117 94.8896C31.6808 92.5459 33.8584 90.1908 36.2361 88.0701C36.8077 87.5727 38.2366 87.7642 39.1254 88.0472C39.617 88.213 39.8713 89.2076 40.2828 89.9421Z" fill="#A4A0C6"/>
<path d="M98.6796 95.813C98.6225 97.5622 97.2736 98.6368 95.9047 98.2653C95.1811 98.0618 94.5161 97.6896 93.9642 97.1792C92.2495 95.5758 90.6263 93.8866 88.9744 92.2203C88.7872 92.0091 88.6206 91.7804 88.4772 91.5372C87.6741 90.3254 87.6513 88.9649 88.4172 88.1532C89.1831 87.3415 90.9292 87.4015 91.9837 88.419C93.9499 90.314 95.8618 92.2632 97.7337 94.2468C98.2195 94.7526 98.4882 95.4757 98.6796 95.813Z" fill="#A4A0C6"/>
<path d="M90.2344 39.6957C88.1424 39.6414 87.2279 37.9494 88.1881 36.2488C88.5911 35.5342 89.2798 34.9769 89.8657 34.3681C91.1632 33.0191 92.4377 31.6501 93.8038 30.3668C94.3296 29.8637 95.0069 29.2606 95.6557 29.2092C96.4902 29.1406 97.7047 29.3207 98.1334 29.8723C98.5621 30.4239 98.6707 31.9359 98.2363 32.4446C96.1386 34.8511 93.8381 37.0833 91.5432 39.3041C91.1946 39.6271 90.503 39.6185 90.2344 39.6957Z" fill="#A4A0C6"/>
</svg>
