<svg width="52" height="62" viewBox="0 0 52 62" fill="none" xmlns="http://www.w3.org/2000/svg">
<path d="M50.5815 3.3612C50.2738 3.41295 49.9575 3.38258 49.666 3.27329C49.3803 3.15901 49.2446 3.23549 49.0631 3.42009C47.2663 5.25036 45.7443 7.29512 44.3167 9.40494C42.5199 12.0651 40.8506 14.7964 39.52 17.715C39.2137 18.3884 39.0277 19.0521 39.0861 19.8186C39.228 21.4995 39.0295 23.1912 38.5021 24.7969C38.4895 24.8347 38.5021 24.8796 38.5866 24.9683L40.723 21.7799C40.1894 21.2384 39.9001 20.6608 40.0941 19.9338C40.3286 19.067 41.1534 18.5492 42.085 18.6969C42.8793 18.8226 43.536 19.6463 43.4803 20.4472C43.4165 21.3588 42.7014 22.0603 41.785 22.0348C41.4184 22.0252 41.2369 22.1359 41.0608 22.4374C39.45 25.2004 37.3521 27.6074 35.168 29.9352C33.4206 31.798 31.56 33.5579 29.7559 35.3697C29.6547 35.468 29.5934 35.5989 29.5834 35.7381C29.6805 37.9745 29.3921 40.1704 28.8773 42.3436C28.8776 42.3866 28.8836 42.4295 28.8952 42.471C29.3148 41.9541 29.6975 41.4442 30.1198 40.9678C31.4926 39.4218 32.8744 37.883 34.2651 36.3517C34.4367 36.1618 34.5041 36 34.4304 35.7363C34.3269 35.3586 34.3617 34.9574 34.5287 34.6021C34.6958 34.2468 34.9846 33.9599 35.345 33.7911C35.7055 33.6222 36.115 33.5821 36.5026 33.6776C36.8901 33.7731 37.2314 33.9982 37.4671 34.3139C37.6999 34.6304 37.8167 35.0145 37.7984 35.404C37.7801 35.7935 37.628 36.1656 37.3665 36.4598C36.7969 37.0796 35.9623 37.2062 35.2103 36.7859L34.8455 36.582C33.0001 38.7736 31.0137 40.879 29.3417 43.2007C28.0974 44.929 27.2529 46.9342 26.244 48.8224C23.9494 53.1206 21.659 57.4202 19.3728 61.7213C19.3315 61.7978 19.283 61.8725 19.212 62L18.6316 61.673L21.8722 55.5862C21.9225 55.4632 21.9851 55.3454 22.0591 55.2345C22.8434 54.2983 22.6368 53.4157 22.1552 52.3669C15.0822 36.9659 8.03613 21.5501 1.01702 6.11978C0.689992 5.40244 0.359371 4.68511 0 3.89568C0.199451 3.88601 0.338707 3.87371 0.477964 3.87371C2.88665 3.87371 5.29623 3.87986 7.70581 3.86404C8.02925 3.86404 8.17479 3.97216 8.29608 4.25083C11.3813 11.2929 14.4716 18.3339 17.567 25.3736C20.5851 32.2387 23.605 39.1026 26.6267 45.9654C26.668 46.0586 26.7165 46.15 26.801 46.3399C26.9807 45.9417 27.1469 45.6226 27.2709 45.285C28.2208 42.7594 28.7722 40.1069 28.906 37.4189C28.9815 35.7952 28.8162 34.2137 28.2232 32.685C28.128 32.438 28.0004 32.3254 27.7156 32.2982C27.3257 32.258 26.9623 32.0864 26.6876 31.8128C26.4129 31.5392 26.244 31.1806 26.2098 30.7985C26.1743 30.4168 26.2699 30.0344 26.4814 29.7118C26.693 29.3893 27.0084 29.1449 27.3778 29.0174C27.7503 28.8977 28.1533 28.905 28.5211 29.0382C28.8888 29.1713 29.1996 29.4224 29.4028 29.7506C29.6015 30.0806 29.6822 30.4659 29.6321 30.8458C29.582 31.2256 29.4039 31.5783 29.1261 31.8481C29.0201 31.9501 28.8988 32.0371 28.7668 32.147C28.9644 32.7738 29.1657 33.4102 29.384 34.1038C29.5133 33.9544 29.64 33.8252 29.7487 33.6819C31.2761 31.66 32.6237 29.5335 33.1241 27.0263C33.3478 25.9011 33.3694 24.7407 33.479 23.5908C33.5024 23.3491 33.4314 23.2146 33.143 23.1319C32.7599 23.0175 32.43 22.7749 32.2113 22.4466C31.9925 22.1183 31.8987 21.7251 31.9463 21.3359C32.0478 20.5579 32.674 19.9224 33.4206 19.8371C34.266 19.7413 35.0207 20.1949 35.2875 20.9606C35.5616 21.7465 35.2381 22.5561 34.505 23.0132C34.3631 23.1012 34.2103 23.3148 34.2157 23.466C34.2876 25.7841 33.8563 28.0047 32.8366 30.0961C32.3569 31.0789 31.7783 32.0169 31.2195 33.027C31.3144 32.9628 31.4045 32.892 31.489 32.8151C33.2113 30.969 34.9929 29.166 36.6181 27.2382C37.1949 26.5533 37.4519 25.5802 37.7573 24.7011C38.5138 22.5218 38.5398 20.2846 38.1796 18.0297C38.0601 17.2798 37.9532 16.5282 37.8382 15.7555C36.7403 15.5665 36.1267 14.9995 36.0683 14.1538C36.0398 13.7711 36.1431 13.3901 36.3616 13.0714C36.5801 12.7528 36.9012 12.5149 37.274 12.3956C37.6557 12.2801 38.0666 12.2982 38.4362 12.4469C38.8057 12.5956 39.1108 12.8656 39.299 13.2105C39.6862 13.9138 39.5344 14.8193 38.8848 15.3151C38.6009 15.5313 38.5443 15.7194 38.6153 16.0482C38.733 16.5678 38.7833 17.1031 38.875 17.7185C38.9558 17.5717 38.9963 17.5014 39.034 17.4301C39.9504 15.6922 40.8254 13.9323 41.7993 12.2259C42.2899 11.3671 42.4786 10.4572 42.6403 9.52537C42.82 8.4775 42.9682 7.42347 43.1263 6.39581C41.9772 5.88858 41.5523 5.16509 41.7966 4.24292C41.8902 3.8754 42.1087 3.5499 42.4162 3.31984C42.7237 3.08978 43.102 2.96881 43.489 2.97678C43.876 2.98475 44.2487 3.12119 44.546 3.36371C44.8434 3.60624 45.0476 3.94044 45.1253 4.31149C45.2906 5.10267 44.9205 5.90792 44.1829 6.19714C43.8496 6.32812 43.7534 6.50394 43.7211 6.82481C43.6196 7.74961 43.4857 8.6709 43.3536 9.67218C43.7238 9.13506 44.0544 8.65332 44.3868 8.17333C45.6707 6.31845 47.0336 4.52159 48.6211 2.89879C48.8008 2.7177 48.8008 2.58936 48.7109 2.37134C48.3085 1.43511 48.7846 0.387235 49.7217 0.0865866C49.9419 0.0149417 50.1747 -0.0126811 50.406 0.00535718C50.6374 0.0233955 50.8627 0.0867274 51.0686 0.191595C51.2745 0.296462 51.4568 0.440728 51.6046 0.615832C51.7524 0.790935 51.8628 0.993309 51.9291 1.21094C52.2139 2.1964 51.6156 3.17922 50.5815 3.3612Z" fill="#B2DFE0"/>
</svg>
